<svg width="420" height="750" viewBox="0 0 420 750" fill="none" xmlns="http://www.w3.org/2000/svg">
<g id="Card-1" clip-path="url(#clip0)">
<rect width="420" height="750" fill="#4A88FF"/>
<g id="art 1" clip-path="url(#clip1)">
<rect width="420" height="420" fill="#001F8B"/>
<rect width="420" height="420" fill="url(#paint0_linear)"/>
<g id="Vector">
<path d="M0 0C48.9825 21 151.953 16.7125 145.373 111.492L107.87 149.748C14.455 151.375 16.1875 51.66 0 0H0ZM190.47 269.535C237.86 305.375 397.39 417.428 397.39 417.428C410.585 426.405 426.475 410.13 417.27 397.092C417.27 397.092 301.647 240.222 264.688 193.76C235.498 156.992 220.902 155.698 169.137 140.455L134.96 175.402C151.34 226.695 153.037 241.203 190.47 269.535V269.535ZM105.122 327.845L150.972 281.89C146.422 277.62 142.415 273.402 138.897 269.22L92.75 315.473L105.122 327.845ZM249.393 132.51L333.463 48.265L371.157 85.9775L288.978 168.333C296.643 177.52 303.205 186.2 310.783 196.053L420 86.625L333.393 0L215.775 117.827C228.112 121.835 239.015 126.28 249.393 132.51V132.51ZM334.04 73.605L264.53 143.273C268.73 146.755 273 150.675 277.34 155.19L346.395 85.96L334.04 73.605V73.605ZM164.273 293.3L101.273 356.423L49.14 370.86L63.56 318.727L127.908 254.24C121.678 244.037 117.11 233.187 112.875 220.92L31.92 302.033L0 420L118.527 388.657L192.5 314.563C175 301.823 174.475 301.455 164.273 293.3V293.3Z" fill="black"/>
<path d="M0 0C48.9825 21 151.953 16.7125 145.373 111.492L107.87 149.748C14.455 151.375 16.1875 51.66 0 0H0ZM190.47 269.535C237.86 305.375 397.39 417.428 397.39 417.428C410.585 426.405 426.475 410.13 417.27 397.092C417.27 397.092 301.647 240.222 264.688 193.76C235.498 156.992 220.902 155.698 169.137 140.455L134.96 175.402C151.34 226.695 153.037 241.203 190.47 269.535V269.535ZM105.122 327.845L150.972 281.89C146.422 277.62 142.415 273.402 138.897 269.22L92.75 315.473L105.122 327.845ZM249.393 132.51L333.463 48.265L371.157 85.9775L288.978 168.333C296.643 177.52 303.205 186.2 310.783 196.053L420 86.625L333.393 0L215.775 117.827C228.112 121.835 239.015 126.28 249.393 132.51V132.51ZM334.04 73.605L264.53 143.273C268.73 146.755 273 150.675 277.34 155.19L346.395 85.96L334.04 73.605V73.605ZM164.273 293.3L101.273 356.423L49.14 370.86L63.56 318.727L127.908 254.24C121.678 244.037 117.11 233.187 112.875 220.92L31.92 302.033L0 420L118.527 388.657L192.5 314.563C175 301.823 174.475 301.455 164.273 293.3V293.3Z" fill="url(#paint1_linear)"/>
</g>
</g>
<g id="Rectangle 1">
<rect y="420" width="420" height="334" fill="#FF0000"/>
<rect y="420" width="420" height="334" fill="url(#paint2_linear)"/>
</g>
<path id="One of my favourite past times is doodling or making art. My favourite art style is doodle and cartooning. I enjoy doodling because its a stress-buster." d="M14.5039 472.4C12.3439 472.4 10.6906 471.787 9.54391 470.56C8.39724 469.333 7.82391 467.6 7.82391 465.36V450.64C7.82391 448.4 8.39724 446.667 9.54391 445.44C10.6906 444.213 12.3439 443.6 14.5039 443.6C16.6639 443.6 18.3172 444.213 19.4639 445.44C20.6106 446.667 21.1839 448.4 21.1839 450.64V465.36C21.1839 467.6 20.6106 469.333 19.4639 470.56C18.3172 471.787 16.6639 472.4 14.5039 472.4ZM14.5039 468.4C16.0239 468.4 16.7839 467.48 16.7839 465.64V450.36C16.7839 448.52 16.0239 447.6 14.5039 447.6C12.9839 447.6 12.2239 448.52 12.2239 450.36V465.64C12.2239 467.48 12.9839 468.4 14.5039 468.4ZM24.1595 444H29.6795L33.9595 460.76H34.0395V444H37.9595V472H33.4395L28.1595 451.56H28.0795V472H24.1595V444ZM41.2298 444H53.2298V448H45.6298V455.4H51.6698V459.4H45.6298V468H53.2298V472H41.2298V444ZM68.5273 472.4C66.3673 472.4 64.714 471.787 63.5673 470.56C62.4207 469.333 61.8473 467.6 61.8473 465.36V450.64C61.8473 448.4 62.4207 446.667 63.5673 445.44C64.714 444.213 66.3673 443.6 68.5273 443.6C70.6873 443.6 72.3407 444.213 73.4873 445.44C74.634 446.667 75.2073 448.4 75.2073 450.64V465.36C75.2073 467.6 74.634 469.333 73.4873 470.56C72.3407 471.787 70.6873 472.4 68.5273 472.4ZM68.5273 468.4C70.0473 468.4 70.8073 467.48 70.8073 465.64V450.36C70.8073 448.52 70.0473 447.6 68.5273 447.6C67.0073 447.6 66.2473 448.52 66.2473 450.36V465.64C66.2473 467.48 67.0073 468.4 68.5273 468.4ZM78.183 444H89.823V448H82.583V455.8H88.263V459.8H82.583V472H78.183V444ZM98.3392 444H104.619L107.419 464.04H107.499L110.299 444H116.579V472H112.419V450.8H112.339L109.139 472H105.459L102.259 450.8H102.179V472H98.3392V444ZM123.903 460.08L118.583 444H123.263L126.263 454.28H126.343L129.343 444H133.623L128.303 460.08V472H123.903V460.08ZM142.011 444H153.651V448H146.411V455.8H152.091V459.8H146.411V472H142.011V444ZM157.872 444H163.832L168.392 472H163.992L163.192 466.44V466.52H158.192L157.392 472H153.312L157.872 444ZM162.672 462.72L160.712 448.88H160.632L158.712 462.72H162.672ZM168.234 444H172.674L175.554 465.72H175.634L178.514 444H182.554L178.314 472H172.474L168.234 444ZM190.949 472.4C188.789 472.4 187.136 471.787 185.989 470.56C184.843 469.333 184.269 467.6 184.269 465.36V450.64C184.269 448.4 184.843 446.667 185.989 445.44C187.136 444.213 188.789 443.6 190.949 443.6C193.109 443.6 194.763 444.213 195.909 445.44C197.056 446.667 197.629 448.4 197.629 450.64V465.36C197.629 467.6 197.056 469.333 195.909 470.56C194.763 471.787 193.109 472.4 190.949 472.4ZM190.949 468.4C192.469 468.4 193.229 467.48 193.229 465.64V450.36C193.229 448.52 192.469 447.6 190.949 447.6C189.429 447.6 188.669 448.52 188.669 450.36V465.64C188.669 467.48 189.429 468.4 190.949 468.4ZM207.005 472.4C204.872 472.4 203.245 471.8 202.125 470.6C201.005 469.373 200.445 467.627 200.445 465.36V444H204.845V465.68C204.845 466.64 205.032 467.333 205.405 467.76C205.805 468.187 206.365 468.4 207.085 468.4C207.805 468.4 208.352 468.187 208.725 467.76C209.125 467.333 209.325 466.64 209.325 465.68V444H213.565V465.36C213.565 467.627 213.005 469.373 211.885 470.6C210.765 471.8 209.138 472.4 207.005 472.4ZM216.699 444H223.219C225.485 444 227.139 444.533 228.179 445.6C229.219 446.64 229.739 448.253 229.739 450.44V452.16C229.739 455.067 228.779 456.907 226.859 457.68V457.76C227.925 458.08 228.672 458.733 229.099 459.72C229.552 460.707 229.779 462.027 229.779 463.68V468.6C229.779 469.4 229.805 470.053 229.859 470.56C229.912 471.04 230.045 471.52 230.259 472H225.779C225.619 471.547 225.512 471.12 225.459 470.72C225.405 470.32 225.379 469.6 225.379 468.56V463.44C225.379 462.16 225.165 461.267 224.739 460.76C224.339 460.253 223.632 460 222.619 460H221.099V472H216.699V444ZM222.699 456C223.579 456 224.232 455.773 224.659 455.32C225.112 454.867 225.339 454.107 225.339 453.04V450.88C225.339 449.867 225.152 449.133 224.779 448.68C224.432 448.227 223.872 448 223.099 448H221.099V456H222.699ZM232.831 444H237.231V472H232.831V444ZM243.967 448H239.367V444H252.967V448H248.367V472H243.967V448ZM255.097 444H267.097V448H259.497V455.4H265.537V459.4H259.497V468H267.097V472H255.097V444ZM276.035 444H282.515C284.701 444 286.341 444.587 287.435 445.76C288.528 446.933 289.075 448.653 289.075 450.92V453.68C289.075 455.947 288.528 457.667 287.435 458.84C286.341 460.013 284.701 460.6 282.515 460.6H280.435V472H276.035V444ZM282.515 456.6C283.235 456.6 283.768 456.4 284.115 456C284.488 455.6 284.675 454.92 284.675 453.96V450.64C284.675 449.68 284.488 449 284.115 448.6C283.768 448.2 283.235 448 282.515 448H280.435V456.6H282.515ZM293.458 444H299.418L303.978 472H299.578L298.778 466.44V466.52H293.778L292.978 472H288.898L293.458 444ZM298.258 462.72L296.298 448.88H296.218L294.298 462.72H298.258ZM311.715 472.4C309.582 472.4 307.969 471.8 306.875 470.6C305.782 469.373 305.235 467.627 305.235 465.36V463.76H309.395V465.68C309.395 467.493 310.155 468.4 311.675 468.4C312.422 468.4 312.982 468.187 313.355 467.76C313.755 467.307 313.955 466.587 313.955 465.6C313.955 464.427 313.689 463.4 313.155 462.52C312.622 461.613 311.635 460.533 310.195 459.28C308.382 457.68 307.115 456.24 306.395 454.96C305.675 453.653 305.315 452.187 305.315 450.56C305.315 448.347 305.875 446.64 306.995 445.44C308.115 444.213 309.742 443.6 311.875 443.6C313.982 443.6 315.569 444.213 316.635 445.44C317.729 446.64 318.275 448.373 318.275 450.64V451.8H314.115V450.36C314.115 449.4 313.929 448.707 313.555 448.28C313.182 447.827 312.635 447.6 311.915 447.6C310.449 447.6 309.715 448.493 309.715 450.28C309.715 451.293 309.982 452.24 310.515 453.12C311.075 454 312.075 455.067 313.515 456.32C315.355 457.92 316.622 459.373 317.315 460.68C318.009 461.987 318.355 463.52 318.355 465.28C318.355 467.573 317.782 469.333 316.635 470.56C315.515 471.787 313.875 472.4 311.715 472.4ZM324.318 448H319.718V444H333.318V448H328.718V472H324.318V448ZM345.295 448H340.695V444H354.295V448H349.695V472H345.295V448ZM356.425 444H360.825V472H356.425V444ZM364.12 444H370.4L373.2 464.04H373.28L376.08 444H382.36V472H378.2V450.8H378.12L374.92 472H371.24L368.04 450.8H367.96V472H364.12V444ZM385.644 444H397.644V448H390.044V455.4H396.084V459.4H390.044V468H397.644V472H385.644V444ZM405.973 472.4C403.84 472.4 402.227 471.8 401.133 470.6C400.04 469.373 399.493 467.627 399.493 465.36V463.76H403.653V465.68C403.653 467.493 404.413 468.4 405.933 468.4C406.68 468.4 407.24 468.187 407.613 467.76C408.013 467.307 408.213 466.587 408.213 465.6C408.213 464.427 407.947 463.4 407.413 462.52C406.88 461.613 405.893 460.533 404.453 459.28C402.64 457.68 401.373 456.24 400.653 454.96C399.933 453.653 399.573 452.187 399.573 450.56C399.573 448.347 400.133 446.64 401.253 445.44C402.373 444.213 404 443.6 406.133 443.6C408.24 443.6 409.827 444.213 410.893 445.44C411.987 446.64 412.533 448.373 412.533 450.64V451.8H408.373V450.36C408.373 449.4 408.187 448.707 407.813 448.28C407.44 447.827 406.893 447.6 406.173 447.6C404.707 447.6 403.973 448.493 403.973 450.28C403.973 451.293 404.24 452.24 404.773 453.12C405.333 454 406.333 455.067 407.773 456.32C409.613 457.92 410.88 459.373 411.573 460.68C412.267 461.987 412.613 463.52 412.613 465.28C412.613 467.573 412.04 469.333 410.893 470.56C409.773 471.787 408.133 472.4 405.973 472.4ZM17.3822 492H21.7822V520H17.3822V492ZM30.7975 520.4C28.6642 520.4 27.0508 519.8 25.9575 518.6C24.8642 517.373 24.3175 515.627 24.3175 513.36V511.76H28.4775V513.68C28.4775 515.493 29.2375 516.4 30.7575 516.4C31.5042 516.4 32.0642 516.187 32.4375 515.76C32.8375 515.307 33.0375 514.587 33.0375 513.6C33.0375 512.427 32.7708 511.4 32.2375 510.52C31.7042 509.613 30.7175 508.533 29.2775 507.28C27.4642 505.68 26.1975 504.24 25.4775 502.96C24.7575 501.653 24.3975 500.187 24.3975 498.56C24.3975 496.347 24.9575 494.64 26.0775 493.44C27.1975 492.213 28.8242 491.6 30.9575 491.6C33.0642 491.6 34.6508 492.213 35.7175 493.44C36.8108 494.64 37.3575 496.373 37.3575 498.64V499.8H33.1975V498.36C33.1975 497.4 33.0108 496.707 32.6375 496.28C32.2642 495.827 31.7175 495.6 30.9975 495.6C29.5308 495.6 28.7975 496.493 28.7975 498.28C28.7975 499.293 29.0642 500.24 29.5975 501.12C30.1575 502 31.1575 503.067 32.5975 504.32C34.4375 505.92 35.7042 507.373 36.3975 508.68C37.0908 509.987 37.4375 511.52 37.4375 513.28C37.4375 515.573 36.8642 517.333 35.7175 518.56C34.5975 519.787 32.9575 520.4 30.7975 520.4ZM46.3666 492H53.0866C55.2732 492 56.9132 492.587 58.0066 493.76C59.0999 494.933 59.6466 496.653 59.6466 498.92V513.08C59.6466 515.347 59.0999 517.067 58.0066 518.24C56.9132 519.413 55.2732 520 53.0866 520H46.3666V492ZM53.0066 516C53.7266 516 54.2732 515.787 54.6466 515.36C55.0466 514.933 55.2466 514.24 55.2466 513.28V498.72C55.2466 497.76 55.0466 497.067 54.6466 496.64C54.2732 496.213 53.7266 496 53.0066 496H50.7666V516H53.0066ZM68.9766 520.4C66.8166 520.4 65.1632 519.787 64.0166 518.56C62.8699 517.333 62.2966 515.6 62.2966 513.36V498.64C62.2966 496.4 62.8699 494.667 64.0166 493.44C65.1632 492.213 66.8166 491.6 68.9766 491.6C71.1366 491.6 72.7899 492.213 73.9366 493.44C75.0832 494.667 75.6566 496.4 75.6566 498.64V513.36C75.6566 515.6 75.0832 517.333 73.9366 518.56C72.7899 519.787 71.1366 520.4 68.9766 520.4ZM68.9766 516.4C70.4966 516.4 71.2566 515.48 71.2566 513.64V498.36C71.2566 496.52 70.4966 495.6 68.9766 495.6C67.4566 495.6 66.6966 496.52 66.6966 498.36V513.64C66.6966 515.48 67.4566 516.4 68.9766 516.4ZM84.9922 520.4C82.8322 520.4 81.1789 519.787 80.0322 518.56C78.8855 517.333 78.3122 515.6 78.3122 513.36V498.64C78.3122 496.4 78.8855 494.667 80.0322 493.44C81.1789 492.213 82.8322 491.6 84.9922 491.6C87.1522 491.6 88.8055 492.213 89.9522 493.44C91.0989 494.667 91.6722 496.4 91.6722 498.64V513.36C91.6722 515.6 91.0989 517.333 89.9522 518.56C88.8055 519.787 87.1522 520.4 84.9922 520.4ZM84.9922 516.4C86.5122 516.4 87.2722 515.48 87.2722 513.64V498.36C87.2722 496.52 86.5122 495.6 84.9922 495.6C83.4722 495.6 82.7122 496.52 82.7122 498.36V513.64C82.7122 515.48 83.4722 516.4 84.9922 516.4ZM94.6478 492H101.368C103.554 492 105.194 492.587 106.288 493.76C107.381 494.933 107.928 496.653 107.928 498.92V513.08C107.928 515.347 107.381 517.067 106.288 518.24C105.194 519.413 103.554 520 101.368 520H94.6478V492ZM101.288 516C102.008 516 102.554 515.787 102.928 515.36C103.328 514.933 103.528 514.24 103.528 513.28V498.72C103.528 497.76 103.328 497.067 102.928 496.64C102.554 496.213 102.008 496 101.288 496H99.0478V516H101.288ZM110.898 492H115.298V516H122.538V520H110.898V492ZM124.648 492H129.048V520H124.648V492ZM132.343 492H137.863L142.143 508.76H142.223V492H146.143V520H141.623L136.343 499.56H136.263V520H132.343V492ZM155.653 520.4C153.52 520.4 151.893 519.8 150.773 518.6C149.653 517.373 149.093 515.627 149.093 513.36V498.64C149.093 496.373 149.653 494.64 150.773 493.44C151.893 492.213 153.52 491.6 155.653 491.6C157.787 491.6 159.413 492.213 160.533 493.44C161.653 494.64 162.213 496.373 162.213 498.64V501.04H158.053V498.36C158.053 496.52 157.293 495.6 155.773 495.6C154.253 495.6 153.493 496.52 153.493 498.36V513.68C153.493 515.493 154.253 516.4 155.773 516.4C157.293 516.4 158.053 515.493 158.053 513.68V508.2H155.853V504.2H162.213V513.36C162.213 515.627 161.653 517.373 160.533 518.6C159.413 519.8 157.787 520.4 155.653 520.4ZM177.805 520.4C175.645 520.4 173.991 519.787 172.845 518.56C171.698 517.333 171.125 515.6 171.125 513.36V498.64C171.125 496.4 171.698 494.667 172.845 493.44C173.991 492.213 175.645 491.6 177.805 491.6C179.965 491.6 181.618 492.213 182.765 493.44C183.911 494.667 184.485 496.4 184.485 498.64V513.36C184.485 515.6 183.911 517.333 182.765 518.56C181.618 519.787 179.965 520.4 177.805 520.4ZM177.805 516.4C179.325 516.4 180.085 515.48 180.085 513.64V498.36C180.085 496.52 179.325 495.6 177.805 495.6C176.285 495.6 175.525 496.52 175.525 498.36V513.64C175.525 515.48 176.285 516.4 177.805 516.4ZM187.46 492H193.98C196.247 492 197.9 492.533 198.94 493.6C199.98 494.64 200.5 496.253 200.5 498.44V500.16C200.5 503.067 199.54 504.907 197.62 505.68V505.76C198.687 506.08 199.434 506.733 199.86 507.72C200.314 508.707 200.54 510.027 200.54 511.68V516.6C200.54 517.4 200.567 518.053 200.62 518.56C200.674 519.04 200.807 519.52 201.02 520H196.54C196.38 519.547 196.274 519.12 196.22 518.72C196.167 518.32 196.14 517.6 196.14 516.56V511.44C196.14 510.16 195.927 509.267 195.5 508.76C195.1 508.253 194.394 508 193.38 508H191.86V520H187.46V492ZM193.46 504C194.34 504 194.994 503.773 195.42 503.32C195.874 502.867 196.1 502.107 196.1 501.04V498.88C196.1 497.867 195.914 497.133 195.54 496.68C195.194 496.227 194.634 496 193.86 496H191.86V504H193.46ZM209.999 492H216.279L219.079 512.04H219.159L221.959 492H228.239V520H224.079V498.8H223.999L220.799 520H217.119L213.919 498.8H213.839V520H209.999V492ZM234.923 492H240.883L245.443 520H241.043L240.243 514.44V514.52H235.243L234.443 520H230.363L234.923 492ZM239.723 510.72L237.763 496.88H237.683L235.763 510.72H239.723ZM247.578 492H251.978V503.8L257.578 492H261.978L256.738 502.28L262.058 520H257.458L253.738 507.52L251.978 511.08V520H247.578V492ZM264.14 492H268.54V520H264.14V492ZM271.835 492H277.355L281.635 508.76H281.715V492H285.635V520H281.115L275.835 499.56H275.755V520H271.835V492ZM295.146 520.4C293.012 520.4 291.386 519.8 290.266 518.6C289.146 517.373 288.586 515.627 288.586 513.36V498.64C288.586 496.373 289.146 494.64 290.266 493.44C291.386 492.213 293.012 491.6 295.146 491.6C297.279 491.6 298.906 492.213 300.026 493.44C301.146 494.64 301.706 496.373 301.706 498.64V501.04H297.546V498.36C297.546 496.52 296.786 495.6 295.266 495.6C293.746 495.6 292.986 496.52 292.986 498.36V513.68C292.986 515.493 293.746 516.4 295.266 516.4C296.786 516.4 297.546 515.493 297.546 513.68V508.2H295.346V504.2H301.706V513.36C301.706 515.627 301.146 517.373 300.026 518.6C298.906 519.8 297.279 520.4 295.146 520.4ZM314.337 492H320.297L324.857 520H320.457L319.657 514.44V514.52H314.657L313.857 520H309.777L314.337 492ZM319.137 510.72L317.177 496.88H317.097L315.177 510.72H319.137ZM326.992 492H333.512C335.778 492 337.432 492.533 338.472 493.6C339.512 494.64 340.032 496.253 340.032 498.44V500.16C340.032 503.067 339.072 504.907 337.152 505.68V505.76C338.218 506.08 338.965 506.733 339.392 507.72C339.845 508.707 340.072 510.027 340.072 511.68V516.6C340.072 517.4 340.098 518.053 340.152 518.56C340.205 519.04 340.338 519.52 340.552 520H336.072C335.912 519.547 335.805 519.12 335.752 518.72C335.698 518.32 335.672 517.6 335.672 516.56V511.44C335.672 510.16 335.458 509.267 335.032 508.76C334.632 508.253 333.925 508 332.912 508H331.392V520H326.992V492ZM332.992 504C333.872 504 334.525 503.773 334.952 503.32C335.405 502.867 335.632 502.107 335.632 501.04V498.88C335.632 497.867 335.445 497.133 335.072 496.68C334.725 496.227 334.165 496 333.392 496H331.392V504H332.992ZM346.486 496H341.886V492H355.486V496H350.886V520H346.486V496ZM354.687 515.76H358.927V520H354.687V515.76ZM368.632 492H374.912L377.712 512.04H377.792L380.592 492H386.872V520H382.712V498.8H382.632L379.432 520H375.752L372.552 498.8H372.472V520H368.632V492ZM394.196 508.08L388.876 492H393.556L396.556 502.28H396.636L399.636 492H403.916L398.596 508.08V520H394.196V508.08ZM17.1673 540H28.8073V544H21.5673V551.8H27.2473V555.8H21.5673V568H17.1673V540ZM33.0283 540H38.9883L43.5483 568H39.1483L38.3483 562.44V562.52H33.3483L32.5483 568H28.4683L33.0283 540ZM37.8283 558.72L35.8683 544.88H35.7883L33.8683 558.72H37.8283ZM43.3902 540H47.8302L50.7102 561.72H50.7902L53.6702 540H57.7102L53.4702 568H47.6302L43.3902 540ZM66.1055 568.4C63.9455 568.4 62.2921 567.787 61.1455 566.56C59.9988 565.333 59.4255 563.6 59.4255 561.36V546.64C59.4255 544.4 59.9988 542.667 61.1455 541.44C62.2921 540.213 63.9455 539.6 66.1055 539.6C68.2655 539.6 69.9188 540.213 71.0655 541.44C72.2121 542.667 72.7855 544.4 72.7855 546.64V561.36C72.7855 563.6 72.2121 565.333 71.0655 566.56C69.9188 567.787 68.2655 568.4 66.1055 568.4ZM66.1055 564.4C67.6255 564.4 68.3855 563.48 68.3855 561.64V546.36C68.3855 544.52 67.6255 543.6 66.1055 543.6C64.5855 543.6 63.8255 544.52 63.8255 546.36V561.64C63.8255 563.48 64.5855 564.4 66.1055 564.4ZM82.1611 568.4C80.0278 568.4 78.4011 567.8 77.2811 566.6C76.1611 565.373 75.6011 563.627 75.6011 561.36V540H80.0011V561.68C80.0011 562.64 80.1878 563.333 80.5611 563.76C80.9611 564.187 81.5211 564.4 82.2411 564.4C82.9611 564.4 83.5078 564.187 83.8811 563.76C84.2811 563.333 84.4811 562.64 84.4811 561.68V540H88.7211V561.36C88.7211 563.627 88.1611 565.373 87.0411 566.6C85.9211 567.8 84.2944 568.4 82.1611 568.4ZM91.8548 540H98.3748C100.642 540 102.295 540.533 103.335 541.6C104.375 542.64 104.895 544.253 104.895 546.44V548.16C104.895 551.067 103.935 552.907 102.015 553.68V553.76C103.082 554.08 103.828 554.733 104.255 555.72C104.708 556.707 104.935 558.027 104.935 559.68V564.6C104.935 565.4 104.962 566.053 105.015 566.56C105.068 567.04 105.202 567.52 105.415 568H100.935C100.775 567.547 100.668 567.12 100.615 566.72C100.562 566.32 100.535 565.6 100.535 564.56V559.44C100.535 558.16 100.322 557.267 99.8948 556.76C99.4948 556.253 98.7882 556 97.7748 556H96.2548V568H91.8548V540ZM97.8548 552C98.7348 552 99.3882 551.773 99.8148 551.32C100.268 550.867 100.495 550.107 100.495 549.04V546.88C100.495 545.867 100.308 545.133 99.9348 544.68C99.5882 544.227 99.0282 544 98.2548 544H96.2548V552H97.8548ZM107.988 540H112.388V568H107.988V540ZM119.123 544H114.523V540H128.123V544H123.523V568H119.123V544ZM130.253 540H142.253V544H134.653V551.4H140.693V555.4H134.653V564H142.253V568H130.253V540ZM154.591 540H160.551L165.111 568H160.711L159.911 562.44V562.52H154.911L154.111 568H150.031L154.591 540ZM159.391 558.72L157.431 544.88H157.351L155.431 558.72H159.391ZM167.245 540H173.765C176.032 540 177.685 540.533 178.725 541.6C179.765 542.64 180.285 544.253 180.285 546.44V548.16C180.285 551.067 179.325 552.907 177.405 553.68V553.76C178.472 554.08 179.219 554.733 179.645 555.72C180.099 556.707 180.325 558.027 180.325 559.68V564.6C180.325 565.4 180.352 566.053 180.405 566.56C180.459 567.04 180.592 567.52 180.805 568H176.325C176.165 567.547 176.059 567.12 176.005 566.72C175.952 566.32 175.925 565.6 175.925 564.56V559.44C175.925 558.16 175.712 557.267 175.285 556.76C174.885 556.253 174.179 556 173.165 556H171.645V568H167.245V540ZM173.245 552C174.125 552 174.779 551.773 175.205 551.32C175.659 550.867 175.885 550.107 175.885 549.04V546.88C175.885 545.867 175.699 545.133 175.325 544.68C174.979 544.227 174.419 544 173.645 544H171.645V552H173.245ZM186.74 544H182.14V540H195.74V544H191.14V568H186.74V544ZM209.997 568.4C207.863 568.4 206.25 567.8 205.157 566.6C204.063 565.373 203.517 563.627 203.517 561.36V559.76H207.677V561.68C207.677 563.493 208.437 564.4 209.957 564.4C210.703 564.4 211.263 564.187 211.637 563.76C212.037 563.307 212.237 562.587 212.237 561.6C212.237 560.427 211.97 559.4 211.437 558.52C210.903 557.613 209.917 556.533 208.477 555.28C206.663 553.68 205.397 552.24 204.677 550.96C203.957 549.653 203.597 548.187 203.597 546.56C203.597 544.347 204.157 542.64 205.277 541.44C206.397 540.213 208.023 539.6 210.157 539.6C212.263 539.6 213.85 540.213 214.917 541.44C216.01 542.64 216.557 544.373 216.557 546.64V547.8H212.397V546.36C212.397 545.4 212.21 544.707 211.837 544.28C211.463 543.827 210.917 543.6 210.197 543.6C208.73 543.6 207.997 544.493 207.997 546.28C207.997 547.293 208.263 548.24 208.797 549.12C209.357 550 210.357 551.067 211.797 552.32C213.637 553.92 214.903 555.373 215.597 556.68C216.29 557.987 216.637 559.52 216.637 561.28C216.637 563.573 216.063 565.333 214.917 566.56C213.797 567.787 212.157 568.4 209.997 568.4ZM222.6 544H218V540H231.6V544H227V568H222.6V544ZM237.926 556.08L232.606 540H237.286L240.286 550.28H240.366L243.366 540H247.646L242.326 556.08V568H237.926V556.08ZM249.628 540H254.028V564H261.268V568H249.628V540ZM263.378 540H275.378V544H267.778V551.4H273.818V555.4H267.778V564H275.378V568H263.378V540ZM284.316 540H288.716V568H284.316V540ZM297.731 568.4C295.598 568.4 293.984 567.8 292.891 566.6C291.798 565.373 291.251 563.627 291.251 561.36V559.76H295.411V561.68C295.411 563.493 296.171 564.4 297.691 564.4C298.438 564.4 298.998 564.187 299.371 563.76C299.771 563.307 299.971 562.587 299.971 561.6C299.971 560.427 299.704 559.4 299.171 558.52C298.638 557.613 297.651 556.533 296.211 555.28C294.398 553.68 293.131 552.24 292.411 550.96C291.691 549.653 291.331 548.187 291.331 546.56C291.331 544.347 291.891 542.64 293.011 541.44C294.131 540.213 295.758 539.6 297.891 539.6C299.998 539.6 301.584 540.213 302.651 541.44C303.744 542.64 304.291 544.373 304.291 546.64V547.8H300.131V546.36C300.131 545.4 299.944 544.707 299.571 544.28C299.198 543.827 298.651 543.6 297.931 543.6C296.464 543.6 295.731 544.493 295.731 546.28C295.731 547.293 295.998 548.24 296.531 549.12C297.091 550 298.091 551.067 299.531 552.32C301.371 553.92 302.638 555.373 303.331 556.68C304.024 557.987 304.371 559.52 304.371 561.28C304.371 563.573 303.798 565.333 302.651 566.56C301.531 567.787 299.891 568.4 297.731 568.4ZM313.3 540H320.02C322.207 540 323.847 540.587 324.94 541.76C326.033 542.933 326.58 544.653 326.58 546.92V561.08C326.58 563.347 326.033 565.067 324.94 566.24C323.847 567.413 322.207 568 320.02 568H313.3V540ZM319.94 564C320.66 564 321.207 563.787 321.58 563.36C321.98 562.933 322.18 562.24 322.18 561.28V546.72C322.18 545.76 321.98 545.067 321.58 544.64C321.207 544.213 320.66 544 319.94 544H317.7V564H319.94ZM335.91 568.4C333.75 568.4 332.097 567.787 330.95 566.56C329.803 565.333 329.23 563.6 329.23 561.36V546.64C329.23 544.4 329.803 542.667 330.95 541.44C332.097 540.213 333.75 539.6 335.91 539.6C338.07 539.6 339.723 540.213 340.87 541.44C342.017 542.667 342.59 544.4 342.59 546.64V561.36C342.59 563.6 342.017 565.333 340.87 566.56C339.723 567.787 338.07 568.4 335.91 568.4ZM335.91 564.4C337.43 564.4 338.19 563.48 338.19 561.64V546.36C338.19 544.52 337.43 543.6 335.91 543.6C334.39 543.6 333.63 544.52 333.63 546.36V561.64C333.63 563.48 334.39 564.4 335.91 564.4ZM351.926 568.4C349.766 568.4 348.112 567.787 346.966 566.56C345.819 565.333 345.246 563.6 345.246 561.36V546.64C345.246 544.4 345.819 542.667 346.966 541.44C348.112 540.213 349.766 539.6 351.926 539.6C354.086 539.6 355.739 540.213 356.886 541.44C358.032 542.667 358.606 544.4 358.606 546.64V561.36C358.606 563.6 358.032 565.333 356.886 566.56C355.739 567.787 354.086 568.4 351.926 568.4ZM351.926 564.4C353.446 564.4 354.206 563.48 354.206 561.64V546.36C354.206 544.52 353.446 543.6 351.926 543.6C350.406 543.6 349.646 544.52 349.646 546.36V561.64C349.646 563.48 350.406 564.4 351.926 564.4ZM361.581 540H368.301C370.488 540 372.128 540.587 373.221 541.76C374.315 542.933 374.861 544.653 374.861 546.92V561.08C374.861 563.347 374.315 565.067 373.221 566.24C372.128 567.413 370.488 568 368.301 568H361.581V540ZM368.221 564C368.941 564 369.488 563.787 369.861 563.36C370.261 562.933 370.461 562.24 370.461 561.28V546.72C370.461 545.76 370.261 545.067 369.861 544.64C369.488 544.213 368.941 544 368.221 544H365.981V564H368.221ZM377.831 540H382.231V564H389.471V568H377.831V540ZM391.581 540H403.581V544H395.981V551.4H402.021V555.4H395.981V564H403.581V568H391.581V540ZM60.8408 588H66.8008L71.3608 616H66.9608L66.1608 610.44V610.52H61.1608L60.3608 616H56.2808L60.8408 588ZM65.6408 606.72L63.6808 592.88H63.6008L61.6808 606.72H65.6408ZM73.4955 588H79.0155L83.2955 604.76H83.3755V588H87.2955V616H82.7755L77.4955 595.56H77.4155V616H73.4955V588ZM90.5658 588H97.2858C99.4724 588 101.112 588.587 102.206 589.76C103.299 590.933 103.846 592.653 103.846 594.92V609.08C103.846 611.347 103.299 613.067 102.206 614.24C101.112 615.413 99.4724 616 97.2858 616H90.5658V588ZM97.2058 612C97.9258 612 98.4724 611.787 98.8458 611.36C99.2458 610.933 99.4458 610.24 99.4458 609.28V594.72C99.4458 593.76 99.2458 593.067 98.8458 592.64C98.4724 592.213 97.9258 592 97.2058 592H94.9658V612H97.2058ZM119.422 616.4C117.315 616.4 115.702 615.8 114.582 614.6C113.489 613.4 112.942 611.707 112.942 609.52V594.48C112.942 592.293 113.489 590.6 114.582 589.4C115.702 588.2 117.315 587.6 119.422 587.6C121.529 587.6 123.129 588.2 124.222 589.4C125.342 590.6 125.902 592.293 125.902 594.48V597.44H121.742V594.2C121.742 592.467 121.009 591.6 119.542 591.6C118.075 591.6 117.342 592.467 117.342 594.2V609.84C117.342 611.547 118.075 612.4 119.542 612.4C121.009 612.4 121.742 611.547 121.742 609.84V605.56H125.902V609.52C125.902 611.707 125.342 613.4 124.222 614.6C123.129 615.8 121.529 616.4 119.422 616.4ZM131.935 588H137.895L142.455 616H138.055L137.255 610.44V610.52H132.255L131.455 616H127.375L131.935 588ZM136.735 606.72L134.775 592.88H134.695L132.775 606.72H136.735ZM144.589 588H151.109C153.376 588 155.029 588.533 156.069 589.6C157.109 590.64 157.629 592.253 157.629 594.44V596.16C157.629 599.067 156.669 600.907 154.749 601.68V601.76C155.816 602.08 156.563 602.733 156.989 603.72C157.443 604.707 157.669 606.027 157.669 607.68V612.6C157.669 613.4 157.696 614.053 157.749 614.56C157.803 615.04 157.936 615.52 158.149 616H153.669C153.509 615.547 153.403 615.12 153.349 614.72C153.296 614.32 153.269 613.6 153.269 612.56V607.44C153.269 606.16 153.056 605.267 152.629 604.76C152.229 604.253 151.523 604 150.509 604H148.989V616H144.589V588ZM150.589 600C151.469 600 152.123 599.773 152.549 599.32C153.003 598.867 153.229 598.107 153.229 597.04V594.88C153.229 593.867 153.043 593.133 152.669 592.68C152.323 592.227 151.763 592 150.989 592H148.989V600H150.589ZM164.084 592H159.484V588H173.084V592H168.484V616H164.084V592ZM181.418 616.4C179.258 616.4 177.605 615.787 176.458 614.56C175.311 613.333 174.738 611.6 174.738 609.36V594.64C174.738 592.4 175.311 590.667 176.458 589.44C177.605 588.213 179.258 587.6 181.418 587.6C183.578 587.6 185.231 588.213 186.378 589.44C187.525 590.667 188.098 592.4 188.098 594.64V609.36C188.098 611.6 187.525 613.333 186.378 614.56C185.231 615.787 183.578 616.4 181.418 616.4ZM181.418 612.4C182.938 612.4 183.698 611.48 183.698 609.64V594.36C183.698 592.52 182.938 591.6 181.418 591.6C179.898 591.6 179.138 592.52 179.138 594.36V609.64C179.138 611.48 179.898 612.4 181.418 612.4ZM197.434 616.4C195.274 616.4 193.62 615.787 192.474 614.56C191.327 613.333 190.754 611.6 190.754 609.36V594.64C190.754 592.4 191.327 590.667 192.474 589.44C193.62 588.213 195.274 587.6 197.434 587.6C199.594 587.6 201.247 588.213 202.394 589.44C203.54 590.667 204.114 592.4 204.114 594.64V609.36C204.114 611.6 203.54 613.333 202.394 614.56C201.247 615.787 199.594 616.4 197.434 616.4ZM197.434 612.4C198.954 612.4 199.714 611.48 199.714 609.64V594.36C199.714 592.52 198.954 591.6 197.434 591.6C195.914 591.6 195.154 592.52 195.154 594.36V609.64C195.154 611.48 195.914 612.4 197.434 612.4ZM207.089 588H212.609L216.889 604.76H216.969V588H220.889V616H216.369L211.089 595.56H211.009V616H207.089V588ZM224.16 588H228.56V616H224.16V588ZM231.855 588H237.375L241.655 604.76H241.735V588H245.655V616H241.135L235.855 595.56H235.775V616H231.855V588ZM255.165 616.4C253.032 616.4 251.405 615.8 250.285 614.6C249.165 613.373 248.605 611.627 248.605 609.36V594.64C248.605 592.373 249.165 590.64 250.285 589.44C251.405 588.213 253.032 587.6 255.165 587.6C257.298 587.6 258.925 588.213 260.045 589.44C261.165 590.64 261.725 592.373 261.725 594.64V597.04H257.565V594.36C257.565 592.52 256.805 591.6 255.285 591.6C253.765 591.6 253.005 592.52 253.005 594.36V609.68C253.005 611.493 253.765 612.4 255.285 612.4C256.805 612.4 257.565 611.493 257.565 609.68V604.2H255.365V600.2H261.725V609.36C261.725 611.627 261.165 613.373 260.045 614.6C258.925 615.8 257.298 616.4 255.165 616.4ZM264.55 611.76H268.79V616H264.55V611.76ZM278.495 588H282.895V616H278.495V588ZM292.597 588H304.597V592H296.997V599.4H303.037V603.4H296.997V612H304.597V616H292.597V588ZM307.128 588H312.648L316.928 604.76H317.008V588H320.928V616H316.408L311.128 595.56H311.048V616H307.128V588ZM325.239 616.16C324.439 616.16 323.759 616.107 323.199 616V612C323.625 612.107 324.105 612.16 324.639 612.16C325.519 612.16 326.172 611.947 326.599 611.52C327.025 611.067 327.239 610.387 327.239 609.48V588H331.639V609.36C331.639 611.653 331.105 613.36 330.039 614.48C328.999 615.6 327.399 616.16 325.239 616.16ZM341.145 616.4C338.985 616.4 337.331 615.787 336.185 614.56C335.038 613.333 334.465 611.6 334.465 609.36V594.64C334.465 592.4 335.038 590.667 336.185 589.44C337.331 588.213 338.985 587.6 341.145 587.6C343.305 587.6 344.958 588.213 346.105 589.44C347.251 590.667 347.825 592.4 347.825 594.64V609.36C347.825 611.6 347.251 613.333 346.105 614.56C344.958 615.787 343.305 616.4 341.145 616.4ZM341.145 612.4C342.665 612.4 343.425 611.48 343.425 609.64V594.36C343.425 592.52 342.665 591.6 341.145 591.6C339.625 591.6 338.865 592.52 338.865 594.36V609.64C338.865 611.48 339.625 612.4 341.145 612.4ZM354.137 604.08L348.817 588H353.497L356.497 598.28H356.577L359.577 588H363.857L358.537 604.08V616H354.137V604.08ZM62.3431 636H69.0631C71.2498 636 72.8898 636.587 73.9831 637.76C75.0765 638.933 75.6231 640.653 75.6231 642.92V657.08C75.6231 659.347 75.0765 661.067 73.9831 662.24C72.8898 663.413 71.2498 664 69.0631 664H62.3431V636ZM68.9831 660C69.7031 660 70.2498 659.787 70.6231 659.36C71.0231 658.933 71.2231 658.24 71.2231 657.28V642.72C71.2231 641.76 71.0231 641.067 70.6231 640.64C70.2498 640.213 69.7031 640 68.9831 640H66.7431V660H68.9831ZM84.9531 664.4C82.7931 664.4 81.1398 663.787 79.9931 662.56C78.8465 661.333 78.2731 659.6 78.2731 657.36V642.64C78.2731 640.4 78.8465 638.667 79.9931 637.44C81.1398 636.213 82.7931 635.6 84.9531 635.6C87.1131 635.6 88.7665 636.213 89.9131 637.44C91.0598 638.667 91.6331 640.4 91.6331 642.64V657.36C91.6331 659.6 91.0598 661.333 89.9131 662.56C88.7665 663.787 87.1131 664.4 84.9531 664.4ZM84.9531 660.4C86.4731 660.4 87.2331 659.48 87.2331 657.64V642.36C87.2331 640.52 86.4731 639.6 84.9531 639.6C83.4331 639.6 82.6731 640.52 82.6731 642.36V657.64C82.6731 659.48 83.4331 660.4 84.9531 660.4ZM100.969 664.4C98.8088 664.4 97.1554 663.787 96.0088 662.56C94.8621 661.333 94.2887 659.6 94.2887 657.36V642.64C94.2887 640.4 94.8621 638.667 96.0088 637.44C97.1554 636.213 98.8088 635.6 100.969 635.6C103.129 635.6 104.782 636.213 105.929 637.44C107.075 638.667 107.649 640.4 107.649 642.64V657.36C107.649 659.6 107.075 661.333 105.929 662.56C104.782 663.787 103.129 664.4 100.969 664.4ZM100.969 660.4C102.489 660.4 103.249 659.48 103.249 657.64V642.36C103.249 640.52 102.489 639.6 100.969 639.6C99.4488 639.6 98.6888 640.52 98.6888 642.36V657.64C98.6888 659.48 99.4488 660.4 100.969 660.4ZM110.624 636H117.344C119.531 636 121.171 636.587 122.264 637.76C123.358 638.933 123.904 640.653 123.904 642.92V657.08C123.904 659.347 123.358 661.067 122.264 662.24C121.171 663.413 119.531 664 117.344 664H110.624V636ZM117.264 660C117.984 660 118.531 659.787 118.904 659.36C119.304 658.933 119.504 658.24 119.504 657.28V642.72C119.504 641.76 119.304 641.067 118.904 640.64C118.531 640.213 117.984 640 117.264 640H115.024V660H117.264ZM126.874 636H131.274V660H138.514V664H126.874V636ZM140.624 636H145.024V664H140.624V636ZM148.32 636H153.84L158.12 652.76H158.2V636H162.12V664H157.6L152.32 643.56H152.24V664H148.32V636ZM171.63 664.4C169.497 664.4 167.87 663.8 166.75 662.6C165.63 661.373 165.07 659.627 165.07 657.36V642.64C165.07 640.373 165.63 638.64 166.75 637.44C167.87 636.213 169.497 635.6 171.63 635.6C173.763 635.6 175.39 636.213 176.51 637.44C177.63 638.64 178.19 640.373 178.19 642.64V645.04H174.03V642.36C174.03 640.52 173.27 639.6 171.75 639.6C170.23 639.6 169.47 640.52 169.47 642.36V657.68C169.47 659.493 170.23 660.4 171.75 660.4C173.27 660.4 174.03 659.493 174.03 657.68V652.2H171.83V648.2H178.19V657.36C178.19 659.627 177.63 661.373 176.51 662.6C175.39 663.8 173.763 664.4 171.63 664.4ZM187.421 636H194.061C196.328 636 197.981 636.533 199.021 637.6C200.061 638.64 200.581 640.253 200.581 642.44V643.56C200.581 645 200.341 646.173 199.861 647.08C199.408 647.987 198.701 648.64 197.741 649.04V649.12C199.928 649.867 201.021 651.813 201.021 654.96V657.36C201.021 659.52 200.448 661.173 199.301 662.32C198.181 663.44 196.528 664 194.341 664H187.421V636ZM193.541 647.4C194.421 647.4 195.075 647.173 195.501 646.72C195.955 646.267 196.181 645.507 196.181 644.44V642.88C196.181 641.867 195.995 641.133 195.621 640.68C195.275 640.227 194.715 640 193.941 640H191.821V647.4H193.541ZM194.341 660C195.115 660 195.688 659.8 196.061 659.4C196.435 658.973 196.621 658.253 196.621 657.24V654.8C196.621 653.52 196.395 652.64 195.941 652.16C195.515 651.653 194.795 651.4 193.781 651.4H191.821V660H194.341ZM203.593 636H215.593V640H207.993V647.4H214.033V651.4H207.993V660H215.593V664H203.593V636ZM224.324 664.4C222.218 664.4 220.604 663.8 219.484 662.6C218.391 661.4 217.844 659.707 217.844 657.52V642.48C217.844 640.293 218.391 638.6 219.484 637.4C220.604 636.2 222.218 635.6 224.324 635.6C226.431 635.6 228.031 636.2 229.124 637.4C230.244 638.6 230.804 640.293 230.804 642.48V645.44H226.644V642.2C226.644 640.467 225.911 639.6 224.444 639.6C222.978 639.6 222.244 640.467 222.244 642.2V657.84C222.244 659.547 222.978 660.4 224.444 660.4C225.911 660.4 226.644 659.547 226.644 657.84V653.56H230.804V657.52C230.804 659.707 230.244 661.4 229.124 662.6C228.031 663.8 226.431 664.4 224.324 664.4ZM236.837 636H242.797L247.357 664H242.957L242.157 658.44V658.52H237.157L236.357 664H232.277L236.837 636ZM241.637 654.72L239.677 640.88H239.597L237.677 654.72H241.637ZM255.813 664.4C253.68 664.4 252.053 663.8 250.933 662.6C249.813 661.373 249.253 659.627 249.253 657.36V636H253.653V657.68C253.653 658.64 253.84 659.333 254.213 659.76C254.613 660.187 255.173 660.4 255.893 660.4C256.613 660.4 257.16 660.187 257.533 659.76C257.933 659.333 258.133 658.64 258.133 657.68V636H262.373V657.36C262.373 659.627 261.813 661.373 260.693 662.6C259.573 663.8 257.947 664.4 255.813 664.4ZM271.227 664.4C269.094 664.4 267.481 663.8 266.387 662.6C265.294 661.373 264.747 659.627 264.747 657.36V655.76H268.907V657.68C268.907 659.493 269.667 660.4 271.187 660.4C271.934 660.4 272.494 660.187 272.867 659.76C273.267 659.307 273.467 658.587 273.467 657.6C273.467 656.427 273.201 655.4 272.667 654.52C272.134 653.613 271.147 652.533 269.707 651.28C267.894 649.68 266.627 648.24 265.907 646.96C265.187 645.653 264.827 644.187 264.827 642.56C264.827 640.347 265.387 638.64 266.507 637.44C267.627 636.213 269.254 635.6 271.387 635.6C273.494 635.6 275.081 636.213 276.147 637.44C277.241 638.64 277.787 640.373 277.787 642.64V643.8H273.627V642.36C273.627 641.4 273.441 640.707 273.067 640.28C272.694 639.827 272.147 639.6 271.427 639.6C269.961 639.6 269.227 640.493 269.227 642.28C269.227 643.293 269.494 644.24 270.027 645.12C270.587 646 271.587 647.067 273.027 648.32C274.867 649.92 276.134 651.373 276.827 652.68C277.521 653.987 277.867 655.52 277.867 657.28C277.867 659.573 277.294 661.333 276.147 662.56C275.027 663.787 273.387 664.4 271.227 664.4ZM280.39 636H292.39V640H284.79V647.4H290.83V651.4H284.79V660H292.39V664H280.39V636ZM301.328 636H305.728V664H301.328V636ZM312.463 640H307.863V636H321.463V640H316.863V664H312.463V640ZM329.313 664.4C327.18 664.4 325.566 663.8 324.473 662.6C323.38 661.373 322.833 659.627 322.833 657.36V655.76H326.993V657.68C326.993 659.493 327.753 660.4 329.273 660.4C330.02 660.4 330.58 660.187 330.953 659.76C331.353 659.307 331.553 658.587 331.553 657.6C331.553 656.427 331.286 655.4 330.753 654.52C330.22 653.613 329.233 652.533 327.793 651.28C325.98 649.68 324.713 648.24 323.993 646.96C323.273 645.653 322.913 644.187 322.913 642.56C322.913 640.347 323.473 638.64 324.593 637.44C325.713 636.213 327.34 635.6 329.473 635.6C331.58 635.6 333.166 636.213 334.233 637.44C335.326 638.64 335.873 640.373 335.873 642.64V643.8H331.713V642.36C331.713 641.4 331.526 640.707 331.153 640.28C330.78 639.827 330.233 639.6 329.513 639.6C328.046 639.6 327.313 640.493 327.313 642.28C327.313 643.293 327.58 644.24 328.113 645.12C328.673 646 329.673 647.067 331.113 648.32C332.953 649.92 334.22 651.373 334.913 652.68C335.606 653.987 335.953 655.52 335.953 657.28C335.953 659.573 335.38 661.333 334.233 662.56C333.113 663.787 331.473 664.4 329.313 664.4ZM348.282 636H354.242L358.802 664H354.402L353.602 658.44V658.52H348.602L347.802 664H343.722L348.282 636ZM353.082 654.72L351.122 640.88H351.042L349.122 654.72H353.082ZM117.008 712.4C114.875 712.4 113.262 711.8 112.168 710.6C111.075 709.373 110.528 707.627 110.528 705.36V703.76H114.688V705.68C114.688 707.493 115.448 708.4 116.968 708.4C117.715 708.4 118.275 708.187 118.648 707.76C119.048 707.307 119.248 706.587 119.248 705.6C119.248 704.427 118.982 703.4 118.448 702.52C117.915 701.613 116.928 700.533 115.488 699.28C113.675 697.68 112.408 696.24 111.688 694.96C110.968 693.653 110.608 692.187 110.608 690.56C110.608 688.347 111.168 686.64 112.288 685.44C113.408 684.213 115.035 683.6 117.168 683.6C119.275 683.6 120.862 684.213 121.928 685.44C123.022 686.64 123.568 688.373 123.568 690.64V691.8H119.408V690.36C119.408 689.4 119.222 688.707 118.848 688.28C118.475 687.827 117.928 687.6 117.208 687.6C115.742 687.6 115.008 688.493 115.008 690.28C115.008 691.293 115.275 692.24 115.808 693.12C116.368 694 117.368 695.067 118.808 696.32C120.648 697.92 121.915 699.373 122.608 700.68C123.302 701.987 123.648 703.52 123.648 705.28C123.648 707.573 123.075 709.333 121.928 710.56C120.808 711.787 119.168 712.4 117.008 712.4ZM129.611 688H125.011V684H138.611V688H134.011V712H129.611V688ZM140.742 684H147.262C149.528 684 151.182 684.533 152.222 685.6C153.262 686.64 153.782 688.253 153.782 690.44V692.16C153.782 695.067 152.822 696.907 150.902 697.68V697.76C151.968 698.08 152.715 698.733 153.142 699.72C153.595 700.707 153.822 702.027 153.822 703.68V708.6C153.822 709.4 153.848 710.053 153.902 710.56C153.955 711.04 154.088 711.52 154.302 712H149.822C149.662 711.547 149.555 711.12 149.502 710.72C149.448 710.32 149.422 709.6 149.422 708.56V703.44C149.422 702.16 149.208 701.267 148.782 700.76C148.382 700.253 147.675 700 146.662 700H145.142V712H140.742V684ZM146.742 696C147.622 696 148.275 695.773 148.702 695.32C149.155 694.867 149.382 694.107 149.382 693.04V690.88C149.382 689.867 149.195 689.133 148.822 688.68C148.475 688.227 147.915 688 147.142 688H145.142V696H146.742ZM156.874 684H168.874V688H161.274V695.4H167.314V699.4H161.274V708H168.874V712H156.874V684ZM177.204 712.4C175.07 712.4 173.457 711.8 172.364 710.6C171.27 709.373 170.724 707.627 170.724 705.36V703.76H174.884V705.68C174.884 707.493 175.644 708.4 177.164 708.4C177.91 708.4 178.47 708.187 178.844 707.76C179.244 707.307 179.444 706.587 179.444 705.6C179.444 704.427 179.177 703.4 178.644 702.52C178.11 701.613 177.124 700.533 175.684 699.28C173.87 697.68 172.604 696.24 171.884 694.96C171.164 693.653 170.804 692.187 170.804 690.56C170.804 688.347 171.364 686.64 172.484 685.44C173.604 684.213 175.23 683.6 177.364 683.6C179.47 683.6 181.057 684.213 182.124 685.44C183.217 686.64 183.764 688.373 183.764 690.64V691.8H179.604V690.36C179.604 689.4 179.417 688.707 179.044 688.28C178.67 687.827 178.124 687.6 177.404 687.6C175.937 687.6 175.204 688.493 175.204 690.28C175.204 691.293 175.47 692.24 176.004 693.12C176.564 694 177.564 695.067 179.004 696.32C180.844 697.92 182.11 699.373 182.804 700.68C183.497 701.987 183.844 703.52 183.844 705.28C183.844 707.573 183.27 709.333 182.124 710.56C181.004 711.787 179.364 712.4 177.204 712.4ZM192.087 712.4C189.953 712.4 188.34 711.8 187.247 710.6C186.153 709.373 185.607 707.627 185.607 705.36V703.76H189.767V705.68C189.767 707.493 190.527 708.4 192.047 708.4C192.793 708.4 193.353 708.187 193.727 707.76C194.127 707.307 194.327 706.587 194.327 705.6C194.327 704.427 194.06 703.4 193.527 702.52C192.993 701.613 192.007 700.533 190.567 699.28C188.753 697.68 187.487 696.24 186.767 694.96C186.047 693.653 185.687 692.187 185.687 690.56C185.687 688.347 186.247 686.64 187.367 685.44C188.487 684.213 190.113 683.6 192.247 683.6C194.353 683.6 195.94 684.213 197.007 685.44C198.1 686.64 198.647 688.373 198.647 690.64V691.8H194.487V690.36C194.487 689.4 194.3 688.707 193.927 688.28C193.553 687.827 193.007 687.6 192.287 687.6C190.82 687.6 190.087 688.493 190.087 690.28C190.087 691.293 190.353 692.24 190.887 693.12C191.447 694 192.447 695.067 193.887 696.32C195.727 697.92 196.993 699.373 197.687 700.68C198.38 701.987 198.727 703.52 198.727 705.28C198.727 707.573 198.153 709.333 197.007 710.56C195.887 711.787 194.247 712.4 192.087 712.4ZM200.453 696H209.253V700H200.453V696ZM211.874 684H218.514C220.781 684 222.434 684.533 223.474 685.6C224.514 686.64 225.034 688.253 225.034 690.44V691.56C225.034 693 224.794 694.173 224.314 695.08C223.861 695.987 223.154 696.64 222.194 697.04V697.12C224.381 697.867 225.474 699.813 225.474 702.96V705.36C225.474 707.52 224.901 709.173 223.754 710.32C222.634 711.44 220.981 712 218.794 712H211.874V684ZM217.994 695.4C218.874 695.4 219.528 695.173 219.954 694.72C220.408 694.267 220.634 693.507 220.634 692.44V690.88C220.634 689.867 220.448 689.133 220.074 688.68C219.728 688.227 219.168 688 218.394 688H216.274V695.4H217.994ZM218.794 708C219.568 708 220.141 707.8 220.514 707.4C220.888 706.973 221.074 706.253 221.074 705.24V702.8C221.074 701.52 220.848 700.64 220.394 700.16C219.968 699.653 219.248 699.4 218.234 699.4H216.274V708H218.794ZM234.446 712.4C232.313 712.4 230.686 711.8 229.566 710.6C228.446 709.373 227.886 707.627 227.886 705.36V684H232.286V705.68C232.286 706.64 232.473 707.333 232.846 707.76C233.246 708.187 233.806 708.4 234.526 708.4C235.246 708.4 235.793 708.187 236.166 707.76C236.566 707.333 236.766 706.64 236.766 705.68V684H241.006V705.36C241.006 707.627 240.446 709.373 239.326 710.6C238.206 711.8 236.58 712.4 234.446 712.4ZM249.86 712.4C247.727 712.4 246.113 711.8 245.02 710.6C243.927 709.373 243.38 707.627 243.38 705.36V703.76H247.54V705.68C247.54 707.493 248.3 708.4 249.82 708.4C250.567 708.4 251.127 708.187 251.5 707.76C251.9 707.307 252.1 706.587 252.1 705.6C252.1 704.427 251.833 703.4 251.3 702.52C250.767 701.613 249.78 700.533 248.34 699.28C246.527 697.68 245.26 696.24 244.54 694.96C243.82 693.653 243.46 692.187 243.46 690.56C243.46 688.347 244.02 686.64 245.14 685.44C246.26 684.213 247.887 683.6 250.02 683.6C252.127 683.6 253.713 684.213 254.78 685.44C255.873 686.64 256.42 688.373 256.42 690.64V691.8H252.26V690.36C252.26 689.4 252.073 688.707 251.7 688.28C251.327 687.827 250.78 687.6 250.06 687.6C248.593 687.6 247.86 688.493 247.86 690.28C247.86 691.293 248.127 692.24 248.66 693.12C249.22 694 250.22 695.067 251.66 696.32C253.5 697.92 254.767 699.373 255.46 700.68C256.153 701.987 256.5 703.52 256.5 705.28C256.5 707.573 255.927 709.333 254.78 710.56C253.66 711.787 252.02 712.4 249.86 712.4ZM262.463 688H257.863V684H271.463V688H266.863V712H262.463V688ZM273.593 684H285.593V688H277.993V695.4H284.033V699.4H277.993V708H285.593V712H273.593V684ZM288.124 684H294.644C296.911 684 298.564 684.533 299.604 685.6C300.644 686.64 301.164 688.253 301.164 690.44V692.16C301.164 695.067 300.204 696.907 298.284 697.68V697.76C299.351 698.08 300.098 698.733 300.524 699.72C300.978 700.707 301.204 702.027 301.204 703.68V708.6C301.204 709.4 301.231 710.053 301.284 710.56C301.338 711.04 301.471 711.52 301.684 712H297.204C297.044 711.547 296.938 711.12 296.884 710.72C296.831 710.32 296.804 709.6 296.804 708.56V703.44C296.804 702.16 296.591 701.267 296.164 700.76C295.764 700.253 295.058 700 294.044 700H292.524V712H288.124V684ZM294.124 696C295.004 696 295.658 695.773 296.084 695.32C296.538 694.867 296.764 694.107 296.764 693.04V690.88C296.764 689.867 296.578 689.133 296.204 688.68C295.858 688.227 295.298 688 294.524 688H292.524V696H294.124ZM304.453 707.76H308.692V712H304.453V707.76Z" fill="black"/>
</g>
<defs>
<linearGradient id="paint0_linear" x1="210" y1="0" x2="210" y2="420" gradientUnits="userSpaceOnUse">
<stop stop-color="#27AE60"/>
<stop offset="1" stop-color="white" stop-opacity="0"/>
</linearGradient>
<linearGradient id="paint1_linear" x1="210.003" y1="0" x2="210.003" y2="420.012" gradientUnits="userSpaceOnUse">
<stop stop-color="#393939"/>
<stop offset="1" stop-color="white" stop-opacity="0"/>
</linearGradient>
<linearGradient id="paint2_linear" x1="210" y1="420" x2="210" y2="754" gradientUnits="userSpaceOnUse">
<stop stop-color="#E6FA00"/>
<stop offset="1" stop-color="white" stop-opacity="0"/>
</linearGradient>
<clipPath id="clip0">
<rect width="420" height="750" fill="white"/>
</clipPath>
<clipPath id="clip1">
<rect width="420" height="420" fill="white"/>
</clipPath>
</defs>
</svg>
