<svg width="420" height="750" viewBox="0 0 420 750" fill="none" xmlns="http://www.w3.org/2000/svg">
<g clip-path="url(#clip0)">
<rect width="420" height="750" fill="#4A88FF"/>
<rect width="420" height="417" transform="translate(0 3)" fill="#219653"/>
<rect width="420" height="417" transform="translate(0 3)" fill="url(#paint0_linear)"/>
<path d="M385 3H87.5C58.5025 3 35 26.3346 35 55.125V367.875C35 396.665 58.5025 420 87.5 420H385V72.5H315V211.5L280 176.75L245 211.5V72.5H96.1625C72.1 72.5 72.1 37.75 96.1625 37.75H385V3Z" fill="black"/>
<path d="M385 3H87.5C58.5025 3 35 26.3346 35 55.125V367.875C35 396.665 58.5025 420 87.5 420H385V72.5H315V211.5L280 176.75L245 211.5V72.5H96.1625C72.1 72.5 72.1 37.75 96.1625 37.75H385V3Z" fill="url(#paint1_linear)"/>
<rect y="420" width="420" height="334" fill="#E6F505"/>
<rect y="420" width="420" height="334" fill="url(#paint2_linear)"/>
<path d="M53.9838 444H58.3838V472H53.9838V444ZM68.0853 444H72.4853V455.4H77.2053V444H81.6053V472H77.2053V459.4H72.4853V472H68.0853V444ZM88.2822 444H94.2422L98.8022 472H94.4022L93.6022 466.44V466.52H88.6022L87.8022 472H83.7222L88.2822 444ZM93.0822 462.72L91.1222 448.88H91.0422L89.1222 462.72H93.0822ZM98.6441 444H103.084L105.964 465.72H106.044L108.924 444H112.964L108.724 472H102.884L98.6441 444ZM115.078 444H127.078V448H119.478V455.4H125.518V459.4H119.478V468H127.078V472H115.078V444ZM139.415 444H145.375L149.935 472H145.535L144.735 466.44V466.52H139.735L138.935 472H134.855L139.415 444ZM144.215 462.72L142.255 448.88H142.175L140.255 462.72H144.215ZM158.476 444H162.876V455.4H167.596V444H171.996V472H167.596V459.4H162.876V472H158.476V444ZM178.673 444H184.633L189.193 472H184.793L183.993 466.44V466.52H178.993L178.193 472H174.113L178.673 444ZM183.473 462.72L181.513 448.88H181.433L179.513 462.72H183.473ZM191.328 444H197.968C200.234 444 201.888 444.533 202.928 445.6C203.968 446.64 204.488 448.253 204.488 450.44V451.56C204.488 453 204.248 454.173 203.768 455.08C203.314 455.987 202.608 456.64 201.648 457.04V457.12C203.834 457.867 204.928 459.813 204.928 462.96V465.36C204.928 467.52 204.354 469.173 203.208 470.32C202.088 471.44 200.434 472 198.248 472H191.328V444ZM197.448 455.4C198.328 455.4 198.981 455.173 199.408 454.72C199.861 454.267 200.088 453.507 200.088 452.44V450.88C200.088 449.867 199.901 449.133 199.528 448.68C199.181 448.227 198.621 448 197.848 448H195.728V455.4H197.448ZM198.248 468C199.021 468 199.594 467.8 199.967 467.4C200.341 466.973 200.528 466.253 200.528 465.24V462.8C200.528 461.52 200.301 460.64 199.848 460.16C199.421 459.653 198.701 459.4 197.688 459.4H195.728V468H198.248ZM207.499 444H211.899V472H207.499V444ZM218.635 448H214.035V444H227.635V448H223.035V472H218.635V448ZM242.531 472.4C240.371 472.4 238.718 471.787 237.571 470.56C236.425 469.333 235.851 467.6 235.851 465.36V450.64C235.851 448.4 236.425 446.667 237.571 445.44C238.718 444.213 240.371 443.6 242.531 443.6C244.691 443.6 246.345 444.213 247.491 445.44C248.638 446.667 249.211 448.4 249.211 450.64V465.36C249.211 467.6 248.638 469.333 247.491 470.56C246.345 471.787 244.691 472.4 242.531 472.4ZM242.531 468.4C244.051 468.4 244.811 467.48 244.811 465.64V450.36C244.811 448.52 244.051 447.6 242.531 447.6C241.011 447.6 240.251 448.52 240.251 450.36V465.64C240.251 467.48 241.011 468.4 242.531 468.4ZM252.187 444H263.827V448H256.587V455.8H262.267V459.8H256.587V472H252.187V444ZM272.343 444H278.863C281.13 444 282.783 444.533 283.823 445.6C284.863 446.64 285.383 448.253 285.383 450.44V452.16C285.383 455.067 284.423 456.907 282.503 457.68V457.76C283.57 458.08 284.316 458.733 284.743 459.72C285.196 460.707 285.423 462.027 285.423 463.68V468.6C285.423 469.4 285.45 470.053 285.503 470.56C285.556 471.04 285.69 471.52 285.903 472H281.423C281.263 471.547 281.156 471.12 281.103 470.72C281.05 470.32 281.023 469.6 281.023 468.56V463.44C281.023 462.16 280.81 461.267 280.383 460.76C279.983 460.253 279.276 460 278.263 460H276.743V472H272.343V444ZM278.343 456C279.223 456 279.876 455.773 280.303 455.32C280.756 454.867 280.983 454.107 280.983 453.04V450.88C280.983 449.867 280.796 449.133 280.423 448.68C280.076 448.227 279.516 448 278.743 448H276.743V456H278.343ZM288.476 444H300.476V448H292.876V455.4H298.916V459.4H292.876V468H300.476V472H288.476V444ZM306.407 444H312.367L316.927 472H312.527L311.727 466.44V466.52H306.727L305.927 472H301.847L306.407 444ZM311.207 462.72L309.247 448.88H309.167L307.247 462.72H311.207ZM319.062 444H325.782C327.969 444 329.609 444.587 330.702 445.76C331.795 446.933 332.342 448.653 332.342 450.92V465.08C332.342 467.347 331.795 469.067 330.702 470.24C329.609 471.413 327.969 472 325.782 472H319.062V444ZM325.702 468C326.422 468 326.969 467.787 327.342 467.36C327.742 466.933 327.942 466.24 327.942 465.28V450.72C327.942 449.76 327.742 449.067 327.342 448.64C326.969 448.213 326.422 448 325.702 448H323.462V468H325.702ZM335.312 444H339.712V472H335.312V444ZM343.007 444H348.527L352.807 460.76H352.887V444H356.807V472H352.287L347.007 451.56H346.927V472H343.007V444ZM366.318 472.4C364.184 472.4 362.558 471.8 361.438 470.6C360.318 469.373 359.757 467.627 359.757 465.36V450.64C359.757 448.373 360.318 446.64 361.438 445.44C362.558 444.213 364.184 443.6 366.318 443.6C368.451 443.6 370.078 444.213 371.198 445.44C372.318 446.64 372.878 448.373 372.878 450.64V453.04H368.717V450.36C368.717 448.52 367.958 447.6 366.438 447.6C364.918 447.6 364.158 448.52 364.158 450.36V465.68C364.158 467.493 364.918 468.4 366.438 468.4C367.958 468.4 368.717 467.493 368.717 465.68V460.2H366.518V456.2H372.878V465.36C372.878 467.627 372.318 469.373 371.198 470.6C370.078 471.8 368.451 472.4 366.318 472.4ZM12.6752 492H19.3152C21.5818 492 23.2352 492.533 24.2752 493.6C25.3152 494.64 25.8352 496.253 25.8352 498.44V499.56C25.8352 501 25.5952 502.173 25.1152 503.08C24.6618 503.987 23.9552 504.64 22.9952 505.04V505.12C25.1818 505.867 26.2752 507.813 26.2752 510.96V513.36C26.2752 515.52 25.7018 517.173 24.5552 518.32C23.4352 519.44 21.7818 520 19.5952 520H12.6752V492ZM18.7952 503.4C19.6752 503.4 20.3285 503.173 20.7552 502.72C21.2085 502.267 21.4352 501.507 21.4352 500.44V498.88C21.4352 497.867 21.2485 497.133 20.8752 496.68C20.5285 496.227 19.9685 496 19.1952 496H17.0752V503.4H18.7952ZM19.5952 516C20.3685 516 20.9418 515.8 21.3152 515.4C21.6885 514.973 21.8752 514.253 21.8752 513.24V510.8C21.8752 509.52 21.6485 508.64 21.1952 508.16C20.7685 507.653 20.0485 507.4 19.0352 507.4H17.0752V516H19.5952ZM28.847 492H40.847V496H33.247V503.4H39.287V507.4H33.247V516H40.847V520H28.847V492ZM43.3783 492H55.0183V496H47.7783V503.8H53.4583V507.8H47.7783V520H43.3783V492ZM63.4883 520.4C61.3283 520.4 59.6749 519.787 58.5283 518.56C57.3816 517.333 56.8083 515.6 56.8083 513.36V498.64C56.8083 496.4 57.3816 494.667 58.5283 493.44C59.6749 492.213 61.3283 491.6 63.4883 491.6C65.6483 491.6 67.3016 492.213 68.4483 493.44C69.5949 494.667 70.1683 496.4 70.1683 498.64V513.36C70.1683 515.6 69.5949 517.333 68.4483 518.56C67.3016 519.787 65.6483 520.4 63.4883 520.4ZM63.4883 516.4C65.0083 516.4 65.7683 515.48 65.7683 513.64V498.36C65.7683 496.52 65.0083 495.6 63.4883 495.6C61.9683 495.6 61.2083 496.52 61.2083 498.36V513.64C61.2083 515.48 61.9683 516.4 63.4883 516.4ZM73.1439 492H79.6639C81.9306 492 83.5839 492.533 84.6239 493.6C85.6639 494.64 86.1839 496.253 86.1839 498.44V500.16C86.1839 503.067 85.2239 504.907 83.3039 505.68V505.76C84.3706 506.08 85.1172 506.733 85.5439 507.72C85.9972 508.707 86.2239 510.027 86.2239 511.68V516.6C86.2239 517.4 86.2506 518.053 86.3039 518.56C86.3572 519.04 86.4906 519.52 86.7039 520H82.2239C82.0639 519.547 81.9572 519.12 81.9039 518.72C81.8506 518.32 81.8239 517.6 81.8239 516.56V511.44C81.8239 510.16 81.6106 509.267 81.1839 508.76C80.7839 508.253 80.0772 508 79.0639 508H77.5439V520H73.1439V492ZM79.1439 504C80.0239 504 80.6772 503.773 81.1039 503.32C81.5572 502.867 81.7839 502.107 81.7839 501.04V498.88C81.7839 497.867 81.5972 497.133 81.2239 496.68C80.8772 496.227 80.3172 496 79.5439 496H77.5439V504H79.1439ZM89.2767 492H101.277V496H93.6767V503.4H99.7167V507.4H93.6767V516H101.277V520H89.2767V492ZM116.454 520.4C114.321 520.4 112.694 519.8 111.574 518.6C110.454 517.373 109.894 515.627 109.894 513.36V498.64C109.894 496.373 110.454 494.64 111.574 493.44C112.694 492.213 114.321 491.6 116.454 491.6C118.588 491.6 120.214 492.213 121.334 493.44C122.454 494.64 123.014 496.373 123.014 498.64V501.04H118.854V498.36C118.854 496.52 118.094 495.6 116.574 495.6C115.054 495.6 114.294 496.52 114.294 498.36V513.68C114.294 515.493 115.054 516.4 116.574 516.4C118.094 516.4 118.854 515.493 118.854 513.68V508.2H116.654V504.2H123.014V513.36C123.014 515.627 122.454 517.373 121.334 518.6C120.214 519.8 118.588 520.4 116.454 520.4ZM132.199 520.4C130.039 520.4 128.386 519.787 127.239 518.56C126.093 517.333 125.519 515.6 125.519 513.36V498.64C125.519 496.4 126.093 494.667 127.239 493.44C128.386 492.213 130.039 491.6 132.199 491.6C134.359 491.6 136.013 492.213 137.159 493.44C138.306 494.667 138.879 496.4 138.879 498.64V513.36C138.879 515.6 138.306 517.333 137.159 518.56C136.013 519.787 134.359 520.4 132.199 520.4ZM132.199 516.4C133.719 516.4 134.479 515.48 134.479 513.64V498.36C134.479 496.52 133.719 495.6 132.199 495.6C130.679 495.6 129.919 496.52 129.919 498.36V513.64C129.919 515.48 130.679 516.4 132.199 516.4ZM141.855 492H146.255V520H141.855V492ZM149.55 492H155.07L159.35 508.76H159.43V492H163.35V520H158.83L153.55 499.56H153.47V520H149.55V492ZM172.86 520.4C170.727 520.4 169.1 519.8 167.98 518.6C166.86 517.373 166.3 515.627 166.3 513.36V498.64C166.3 496.373 166.86 494.64 167.98 493.44C169.1 492.213 170.727 491.6 172.86 491.6C174.994 491.6 176.62 492.213 177.74 493.44C178.86 494.64 179.42 496.373 179.42 498.64V501.04H175.26V498.36C175.26 496.52 174.5 495.6 172.98 495.6C171.46 495.6 170.7 496.52 170.7 498.36V513.68C170.7 515.493 171.46 516.4 172.98 516.4C174.5 516.4 175.26 515.493 175.26 513.68V508.2H173.06V504.2H179.42V513.36C179.42 515.627 178.86 517.373 177.74 518.6C176.62 519.8 174.994 520.4 172.86 520.4ZM192.092 496H187.492V492H201.092V496H196.492V520H192.092V496ZM209.426 520.4C207.266 520.4 205.612 519.787 204.466 518.56C203.319 517.333 202.746 515.6 202.746 513.36V498.64C202.746 496.4 203.319 494.667 204.466 493.44C205.612 492.213 207.266 491.6 209.426 491.6C211.586 491.6 213.239 492.213 214.386 493.44C215.532 494.667 216.106 496.4 216.106 498.64V513.36C216.106 515.6 215.532 517.333 214.386 518.56C213.239 519.787 211.586 520.4 209.426 520.4ZM209.426 516.4C210.946 516.4 211.706 515.48 211.706 513.64V498.36C211.706 496.52 210.946 495.6 209.426 495.6C207.906 495.6 207.146 496.52 207.146 498.36V513.64C207.146 515.48 207.906 516.4 209.426 516.4ZM225.488 492H232.128C234.394 492 236.048 492.533 237.088 493.6C238.128 494.64 238.648 496.253 238.648 498.44V499.56C238.648 501 238.408 502.173 237.928 503.08C237.474 503.987 236.768 504.64 235.808 505.04V505.12C237.994 505.867 239.088 507.813 239.088 510.96V513.36C239.088 515.52 238.514 517.173 237.368 518.32C236.248 519.44 234.594 520 232.408 520H225.488V492ZM231.608 503.4C232.488 503.4 233.141 503.173 233.568 502.72C234.021 502.267 234.248 501.507 234.248 500.44V498.88C234.248 497.867 234.061 497.133 233.688 496.68C233.341 496.227 232.781 496 232.008 496H229.888V503.4H231.608ZM232.408 516C233.181 516 233.754 515.8 234.128 515.4C234.501 514.973 234.688 514.253 234.688 513.24V510.8C234.688 509.52 234.461 508.64 234.008 508.16C233.581 507.653 232.861 507.4 231.848 507.4H229.888V516H232.408ZM241.66 492H253.66V496H246.06V503.4H252.1V507.4H246.06V516H253.66V520H241.66V492ZM256.191 492H262.911C265.097 492 266.737 492.587 267.831 493.76C268.924 494.933 269.471 496.653 269.471 498.92V513.08C269.471 515.347 268.924 517.067 267.831 518.24C266.737 519.413 265.097 520 262.911 520H256.191V492ZM262.831 516C263.551 516 264.097 515.787 264.471 515.36C264.871 514.933 265.071 514.24 265.071 513.28V498.72C265.071 497.76 264.871 497.067 264.471 496.64C264.097 496.213 263.551 496 262.831 496H260.591V516H262.831ZM282.247 492H288.207L292.767 520H288.367L287.567 514.44V514.52H282.567L281.767 520H277.687L282.247 492ZM287.047 510.72L285.087 496.88H285.007L283.087 510.72H287.047ZM294.902 492H300.422L304.702 508.76H304.782V492H308.702V520H304.182L298.902 499.56H298.822V520H294.902V492ZM311.972 492H318.692C320.879 492 322.519 492.587 323.612 493.76C324.705 494.933 325.252 496.653 325.252 498.92V513.08C325.252 515.347 324.705 517.067 323.612 518.24C322.519 519.413 320.879 520 318.692 520H311.972V492ZM318.612 516C319.332 516 319.879 515.787 320.252 515.36C320.652 514.933 320.852 514.24 320.852 513.28V498.72C320.852 497.76 320.652 497.067 320.252 496.64C319.879 496.213 319.332 496 318.612 496H316.372V516H318.612ZM334.628 492H340.148L344.428 508.76H344.508V492H348.428V520H343.908L338.628 499.56H338.548V520H334.628V492ZM358.059 520.4C355.899 520.4 354.245 519.787 353.099 518.56C351.952 517.333 351.379 515.6 351.379 513.36V498.64C351.379 496.4 351.952 494.667 353.099 493.44C354.245 492.213 355.899 491.6 358.059 491.6C360.219 491.6 361.872 492.213 363.019 493.44C364.165 494.667 364.739 496.4 364.739 498.64V513.36C364.739 515.6 364.165 517.333 363.019 518.56C361.872 519.787 360.219 520.4 358.059 520.4ZM358.059 516.4C359.579 516.4 360.339 515.48 360.339 513.64V498.36C360.339 496.52 359.579 495.6 358.059 495.6C356.539 495.6 355.779 496.52 355.779 498.36V513.64C355.779 515.48 356.539 516.4 358.059 516.4ZM366.674 492H370.914L372.874 513.52H372.954L375.034 492H379.834L381.914 513.52H381.994L383.954 492H387.754L384.914 520H379.434L377.434 501.12H377.354L375.354 520H369.514L366.674 492ZM390.404 520H388.964V515.76H393.204V519.56L391.004 524.8H388.964L390.404 520ZM402.91 492H407.31V520H402.91V492ZM19.2853 568.4C17.1786 568.4 15.5653 567.8 14.4453 566.6C13.352 565.4 12.8053 563.707 12.8053 561.52V546.48C12.8053 544.293 13.352 542.6 14.4453 541.4C15.5653 540.2 17.1786 539.6 19.2853 539.6C21.392 539.6 22.992 540.2 24.0853 541.4C25.2053 542.6 25.7653 544.293 25.7653 546.48V549.44H21.6053V546.2C21.6053 544.467 20.872 543.6 19.4053 543.6C17.9386 543.6 17.2053 544.467 17.2053 546.2V561.84C17.2053 563.547 17.9386 564.4 19.4053 564.4C20.872 564.4 21.6053 563.547 21.6053 561.84V557.56H25.7653V561.52C25.7653 563.707 25.2053 565.4 24.0853 566.6C22.992 567.8 21.392 568.4 19.2853 568.4ZM31.7978 540H37.7578L42.3178 568H37.9178L37.1178 562.44V562.52H32.1178L31.3178 568H27.2378L31.7978 540ZM36.5978 558.72L34.6378 544.88H34.5578L32.6378 558.72H36.5978ZM44.4525 540H49.9725L54.2525 556.76H54.3325V540H58.2525V568H53.7325L48.4525 547.56H48.3725V568H44.4525V540ZM61.4028 540H65.8828L64.8028 549.04H62.4428L61.4028 540ZM72.8925 544H68.2925V540H81.8925V544H77.2925V568H72.8925V544ZM96.1491 568.4C94.0157 568.4 92.4024 567.8 91.3091 566.6C90.2157 565.373 89.6691 563.627 89.6691 561.36V559.76H93.8291V561.68C93.8291 563.493 94.5891 564.4 96.1091 564.4C96.8557 564.4 97.4157 564.187 97.7891 563.76C98.1891 563.307 98.3891 562.587 98.3891 561.6C98.3891 560.427 98.1224 559.4 97.5891 558.52C97.0557 557.613 96.0691 556.533 94.6291 555.28C92.8157 553.68 91.5491 552.24 90.8291 550.96C90.1091 549.653 89.7491 548.187 89.7491 546.56C89.7491 544.347 90.3091 542.64 91.4291 541.44C92.5491 540.213 94.1757 539.6 96.3091 539.6C98.4157 539.6 100.002 540.213 101.069 541.44C102.162 542.64 102.709 544.373 102.709 546.64V547.8H98.5491V546.36C98.5491 545.4 98.3624 544.707 97.9891 544.28C97.6157 543.827 97.0691 543.6 96.3491 543.6C94.8824 543.6 94.1491 544.493 94.1491 546.28C94.1491 547.293 94.4157 548.24 94.9491 549.12C95.5091 550 96.5091 551.067 97.9491 552.32C99.7891 553.92 101.056 555.373 101.749 556.68C102.442 557.987 102.789 559.52 102.789 561.28C102.789 563.573 102.216 565.333 101.069 566.56C99.9491 567.787 98.3091 568.4 96.1491 568.4ZM105.312 540H109.712V564H116.952V568H105.312V540ZM119.062 540H131.062V544H123.462V551.4H129.502V555.4H123.462V564H131.062V568H119.062V540ZM133.593 540H145.593V544H137.993V551.4H144.033V555.4H137.993V564H145.593V568H133.593V540ZM148.124 540H154.604C156.791 540 158.431 540.587 159.524 541.76C160.618 542.933 161.164 544.653 161.164 546.92V549.68C161.164 551.947 160.618 553.667 159.524 554.84C158.431 556.013 156.791 556.6 154.604 556.6H152.524V568H148.124V540ZM154.604 552.6C155.324 552.6 155.858 552.4 156.204 552C156.578 551.6 156.764 550.92 156.764 549.96V546.64C156.764 545.68 156.578 545 156.204 544.6C155.858 544.2 155.324 544 154.604 544H152.524V552.6H154.604ZM168.92 540H173.16L175.12 561.52H175.2L177.28 540H182.08L184.16 561.52H184.24L186.2 540H190L187.16 568H181.68L179.68 549.12H179.6L177.6 568H171.76L168.92 540ZM192.226 540H196.626V568H192.226V540ZM203.361 544H198.761V540H212.361V544H207.761V568H203.361V544ZM214.492 540H218.892V551.4H223.612V540H228.012V568H223.612V555.4H218.892V568H214.492V540ZM237.648 568.4C235.488 568.4 233.835 567.787 232.688 566.56C231.542 565.333 230.968 563.6 230.968 561.36V546.64C230.968 544.4 231.542 542.667 232.688 541.44C233.835 540.213 235.488 539.6 237.648 539.6C239.808 539.6 241.462 540.213 242.608 541.44C243.755 542.667 244.328 544.4 244.328 546.64V561.36C244.328 563.6 243.755 565.333 242.608 566.56C241.462 567.787 239.808 568.4 237.648 568.4ZM237.648 564.4C239.168 564.4 239.928 563.48 239.928 561.64V546.36C239.928 544.52 239.168 543.6 237.648 543.6C236.128 543.6 235.368 544.52 235.368 546.36V561.64C235.368 563.48 236.128 564.4 237.648 564.4ZM253.704 568.4C251.571 568.4 249.944 567.8 248.824 566.6C247.704 565.373 247.144 563.627 247.144 561.36V540H251.544V561.68C251.544 562.64 251.731 563.333 252.104 563.76C252.504 564.187 253.064 564.4 253.784 564.4C254.504 564.4 255.051 564.187 255.424 563.76C255.824 563.333 256.024 562.64 256.024 561.68V540H260.264V561.36C260.264 563.627 259.704 565.373 258.584 566.6C257.464 567.8 255.837 568.4 253.704 568.4ZM266.838 544H262.238V540H275.838V544H271.238V568H266.838V544ZM284.374 540H290.894C293.161 540 294.814 540.533 295.854 541.6C296.894 542.64 297.414 544.253 297.414 546.44V548.16C297.414 551.067 296.454 552.907 294.534 553.68V553.76C295.601 554.08 296.348 554.733 296.774 555.72C297.228 556.707 297.454 558.027 297.454 559.68V564.6C297.454 565.4 297.481 566.053 297.534 566.56C297.588 567.04 297.721 567.52 297.934 568H293.454C293.294 567.547 293.188 567.12 293.134 566.72C293.081 566.32 293.054 565.6 293.054 564.56V559.44C293.054 558.16 292.841 557.267 292.414 556.76C292.014 556.253 291.308 556 290.294 556H288.774V568H284.374V540ZM290.374 552C291.254 552 291.908 551.773 292.334 551.32C292.788 550.867 293.014 550.107 293.014 549.04V546.88C293.014 545.867 292.828 545.133 292.454 544.68C292.108 544.227 291.548 544 290.774 544H288.774V552H290.374ZM300.507 540H312.507V544H304.907V551.4H310.947V555.4H304.907V564H312.507V568H300.507V540ZM318.438 540H324.398L328.958 568H324.558L323.758 562.44V562.52H318.758L317.958 568H313.878L318.438 540ZM323.238 558.72L321.278 544.88H321.198L319.278 558.72H323.238ZM331.093 540H337.813C340 540 341.64 540.587 342.733 541.76C343.826 542.933 344.373 544.653 344.373 546.92V561.08C344.373 563.347 343.826 565.067 342.733 566.24C341.64 567.413 340 568 337.813 568H331.093V540ZM337.733 564C338.453 564 339 563.787 339.373 563.36C339.773 562.933 339.973 562.24 339.973 561.28V546.72C339.973 545.76 339.773 545.067 339.373 544.64C339 544.213 338.453 544 337.733 544H335.493V564H337.733ZM347.343 540H351.743V568H347.343V540ZM355.038 540H360.558L364.838 556.76H364.918V540H368.838V568H364.318L359.038 547.56H358.958V568H355.038V540ZM378.349 568.4C376.215 568.4 374.589 567.8 373.469 566.6C372.349 565.373 371.789 563.627 371.789 561.36V546.64C371.789 544.373 372.349 542.64 373.469 541.44C374.589 540.213 376.215 539.6 378.349 539.6C380.482 539.6 382.109 540.213 383.229 541.44C384.349 542.64 384.909 544.373 384.909 546.64V549.04H380.749V546.36C380.749 544.52 379.989 543.6 378.469 543.6C376.949 543.6 376.189 544.52 376.189 546.36V561.68C376.189 563.493 376.949 564.4 378.469 564.4C379.989 564.4 380.749 563.493 380.749 561.68V556.2H378.549V552.2H384.909V561.36C384.909 563.627 384.349 565.373 383.229 566.6C382.109 567.8 380.482 568.4 378.349 568.4ZM397.54 540H403.5L408.06 568H403.66L402.86 562.44V562.52H397.86L397.06 568H392.98L397.54 540ZM402.34 558.72L400.38 544.88H400.3L398.38 558.72H402.34ZM9.31578 588H15.9558C18.2224 588 19.8758 588.533 20.9158 589.6C21.9558 590.64 22.4758 592.253 22.4758 594.44V595.56C22.4758 597 22.2358 598.173 21.7558 599.08C21.3024 599.987 20.5958 600.64 19.6358 601.04V601.12C21.8224 601.867 22.9158 603.813 22.9158 606.96V609.36C22.9158 611.52 22.3424 613.173 21.1958 614.32C20.0758 615.44 18.4224 616 16.2358 616H9.31578V588ZM15.4358 599.4C16.3158 599.4 16.9691 599.173 17.3958 598.72C17.8491 598.267 18.0758 597.507 18.0758 596.44V594.88C18.0758 593.867 17.8891 593.133 17.5158 592.68C17.1691 592.227 16.6091 592 15.8358 592H13.7158V599.4H15.4358ZM16.2358 612C17.0091 612 17.5824 611.8 17.9558 611.4C18.3291 610.973 18.5158 610.253 18.5158 609.24V606.8C18.5158 605.52 18.2891 604.64 17.8358 604.16C17.4091 603.653 16.6891 603.4 15.6758 603.4H13.7158V612H16.2358ZM31.8477 616.4C29.6877 616.4 28.0343 615.787 26.8877 614.56C25.741 613.333 25.1677 611.6 25.1677 609.36V594.64C25.1677 592.4 25.741 590.667 26.8877 589.44C28.0343 588.213 29.6877 587.6 31.8477 587.6C34.0077 587.6 35.661 588.213 36.8077 589.44C37.9543 590.667 38.5277 592.4 38.5277 594.64V609.36C38.5277 611.6 37.9543 613.333 36.8077 614.56C35.661 615.787 34.0077 616.4 31.8477 616.4ZM31.8477 612.4C33.3677 612.4 34.1277 611.48 34.1277 609.64V594.36C34.1277 592.52 33.3677 591.6 31.8477 591.6C30.3277 591.6 29.5677 592.52 29.5677 594.36V609.64C29.5677 611.48 30.3277 612.4 31.8477 612.4ZM47.8633 616.4C45.7033 616.4 44.0499 615.787 42.9033 614.56C41.7566 613.333 41.1833 611.6 41.1833 609.36V594.64C41.1833 592.4 41.7566 590.667 42.9033 589.44C44.0499 588.213 45.7033 587.6 47.8633 587.6C50.0233 587.6 51.6766 588.213 52.8233 589.44C53.9699 590.667 54.5433 592.4 54.5433 594.64V609.36C54.5433 611.6 53.9699 613.333 52.8233 614.56C51.6766 615.787 50.0233 616.4 47.8633 616.4ZM47.8633 612.4C49.3833 612.4 50.1433 611.48 50.1433 609.64V594.36C50.1433 592.52 49.3833 591.6 47.8633 591.6C46.3433 591.6 45.5833 592.52 45.5833 594.36V609.64C45.5833 611.48 46.3433 612.4 47.8633 612.4ZM57.5189 588H61.9189V599.8L67.5189 588H71.9189L66.6789 598.28L71.9989 616H67.3989L63.6789 603.52L61.9189 607.08V616H57.5189V588ZM75.7167 616H74.2767V611.76H78.5167V615.56L76.3167 620.8H74.2767L75.7167 616ZM88.222 588H93.742L98.022 604.76H98.102V588H102.022V616H97.502L92.222 595.56H92.142V616H88.222V588ZM111.652 616.4C109.492 616.4 107.839 615.787 106.692 614.56C105.546 613.333 104.972 611.6 104.972 609.36V594.64C104.972 592.4 105.546 590.667 106.692 589.44C107.839 588.213 109.492 587.6 111.652 587.6C113.812 587.6 115.466 588.213 116.612 589.44C117.759 590.667 118.332 592.4 118.332 594.64V609.36C118.332 611.6 117.759 613.333 116.612 614.56C115.466 615.787 113.812 616.4 111.652 616.4ZM111.652 612.4C113.172 612.4 113.932 611.48 113.932 609.64V594.36C113.932 592.52 113.172 591.6 111.652 591.6C110.132 591.6 109.372 592.52 109.372 594.36V609.64C109.372 611.48 110.132 612.4 111.652 612.4ZM127.714 588H133.994L136.794 608.04H136.874L139.674 588H145.954V616H141.794V594.8H141.714L138.514 616H134.834L131.634 594.8H131.554V616H127.714V588ZM152.638 588H158.598L163.158 616H158.758L157.958 610.44V610.52H152.958L152.158 616H148.078L152.638 588ZM157.438 606.72L155.478 592.88H155.398L153.478 606.72H157.438ZM166.896 592H162.296V588H175.896V592H171.296V616H166.896V592ZM181.857 592H177.257V588H190.857V592H186.257V616H181.857V592ZM192.988 588H204.988V592H197.388V599.4H203.428V603.4H197.388V612H204.988V616H192.988V588ZM207.519 588H214.039C216.306 588 217.959 588.533 218.999 589.6C220.039 590.64 220.559 592.253 220.559 594.44V596.16C220.559 599.067 219.599 600.907 217.679 601.68V601.76C218.746 602.08 219.492 602.733 219.919 603.72C220.372 604.707 220.599 606.027 220.599 607.68V612.6C220.599 613.4 220.626 614.053 220.679 614.56C220.732 615.04 220.866 615.52 221.079 616H216.599C216.439 615.547 216.332 615.12 216.279 614.72C216.226 614.32 216.199 613.6 216.199 612.56V607.44C216.199 606.16 215.986 605.267 215.559 604.76C215.159 604.253 214.452 604 213.439 604H211.919V616H207.519V588ZM213.519 600C214.399 600 215.052 599.773 215.479 599.32C215.932 598.867 216.159 598.107 216.159 597.04V594.88C216.159 593.867 215.972 593.133 215.599 592.68C215.252 592.227 214.692 592 213.919 592H211.919V600H213.519ZM230.058 588H234.458V599.4H239.178V588H243.578V616H239.178V603.4H234.458V616H230.058V588ZM253.215 616.4C251.055 616.4 249.402 615.787 248.255 614.56C247.108 613.333 246.535 611.6 246.535 609.36V594.64C246.535 592.4 247.108 590.667 248.255 589.44C249.402 588.213 251.055 587.6 253.215 587.6C255.375 587.6 257.028 588.213 258.175 589.44C259.322 590.667 259.895 592.4 259.895 594.64V609.36C259.895 611.6 259.322 613.333 258.175 614.56C257.028 615.787 255.375 616.4 253.215 616.4ZM253.215 612.4C254.735 612.4 255.495 611.48 255.495 609.64V594.36C255.495 592.52 254.735 591.6 253.215 591.6C251.695 591.6 250.935 592.52 250.935 594.36V609.64C250.935 611.48 251.695 612.4 253.215 612.4ZM261.83 588H266.07L268.03 609.52H268.11L270.19 588H274.99L277.07 609.52H277.15L279.11 588H282.91L280.07 616H274.59L272.59 597.12H272.51L270.51 616H264.67L261.83 588ZM291.542 588H295.942V612H303.182V616H291.542V588ZM308.849 588H314.809L319.369 616H314.969L314.169 610.44V610.52H309.169L308.369 616H304.289L308.849 588ZM313.649 606.72L311.689 592.88H311.609L309.689 606.72H313.649ZM323.107 592H318.507V588H332.107V592H327.507V616H323.107V592ZM334.238 588H346.238V592H338.638V599.4H344.678V603.4H338.638V612H346.238V616H334.238V588ZM355.175 588H359.575V616H355.175V588ZM366.31 592H361.71V588H375.31V592H370.71V616H366.31V592ZM383.847 588H388.247V616H383.847V588ZM397.262 616.4C395.129 616.4 393.516 615.8 392.422 614.6C391.329 613.373 390.782 611.627 390.782 609.36V607.76H394.942V609.68C394.942 611.493 395.702 612.4 397.222 612.4C397.969 612.4 398.529 612.187 398.902 611.76C399.302 611.307 399.502 610.587 399.502 609.6C399.502 608.427 399.236 607.4 398.702 606.52C398.169 605.613 397.182 604.533 395.742 603.28C393.929 601.68 392.662 600.24 391.942 598.96C391.222 597.653 390.862 596.187 390.862 594.56C390.862 592.347 391.422 590.64 392.542 589.44C393.662 588.213 395.289 587.6 397.422 587.6C399.529 587.6 401.116 588.213 402.182 589.44C403.276 590.64 403.822 592.373 403.822 594.64V595.8H399.662V594.36C399.662 593.4 399.476 592.707 399.102 592.28C398.729 591.827 398.182 591.6 397.462 591.6C395.996 591.6 395.262 592.493 395.262 594.28C395.262 595.293 395.529 596.24 396.062 597.12C396.622 598 397.622 599.067 399.062 600.32C400.902 601.92 402.169 603.373 402.862 604.68C403.556 605.987 403.902 607.52 403.902 609.28C403.902 611.573 403.329 613.333 402.182 614.56C401.062 615.787 399.422 616.4 397.262 616.4ZM406.425 611.76H410.665V616H406.425V611.76ZM29.4525 636H35.7325L38.5325 656.04H38.6125L41.4125 636H47.6925V664H43.5325V642.8H43.4525L40.2525 664H36.5725L33.3725 642.8H33.2925V664H29.4525V636ZM55.0159 652.08L49.6959 636H54.3759L57.3759 646.28H57.4559L60.4559 636H64.7359L59.4159 652.08V664H55.0159V652.08ZM73.1244 636H84.7644V640H77.5244V647.8H83.2044V651.8H77.5244V664H73.1244V636ZM88.9853 636H94.9453L99.5053 664H95.1053L94.3053 658.44V658.52H89.3053L88.5053 664H84.4253L88.9853 636ZM93.7853 654.72L91.8253 640.88H91.7453L89.8253 654.72H93.7853ZM99.3472 636H103.787L106.667 657.72H106.747L109.627 636H113.667L109.427 664H103.587L99.3472 636ZM122.063 664.4C119.903 664.4 118.249 663.787 117.103 662.56C115.956 661.333 115.382 659.6 115.382 657.36V642.64C115.382 640.4 115.956 638.667 117.103 637.44C118.249 636.213 119.903 635.6 122.063 635.6C124.223 635.6 125.876 636.213 127.023 637.44C128.169 638.667 128.743 640.4 128.743 642.64V657.36C128.743 659.6 128.169 661.333 127.023 662.56C125.876 663.787 124.223 664.4 122.063 664.4ZM122.063 660.4C123.583 660.4 124.342 659.48 124.342 657.64V642.36C124.342 640.52 123.583 639.6 122.063 639.6C120.543 639.6 119.783 640.52 119.783 642.36V657.64C119.783 659.48 120.543 660.4 122.063 660.4ZM138.118 664.4C135.985 664.4 134.358 663.8 133.238 662.6C132.118 661.373 131.558 659.627 131.558 657.36V636H135.958V657.68C135.958 658.64 136.145 659.333 136.518 659.76C136.918 660.187 137.478 660.4 138.198 660.4C138.918 660.4 139.465 660.187 139.838 659.76C140.238 659.333 140.438 658.64 140.438 657.68V636H144.678V657.36C144.678 659.627 144.118 661.373 142.998 662.6C141.878 663.8 140.251 664.4 138.118 664.4ZM147.812 636H154.332C156.599 636 158.252 636.533 159.292 637.6C160.332 638.64 160.852 640.253 160.852 642.44V644.16C160.852 647.067 159.892 648.907 157.972 649.68V649.76C159.039 650.08 159.785 650.733 160.212 651.72C160.665 652.707 160.892 654.027 160.892 655.68V660.6C160.892 661.4 160.919 662.053 160.972 662.56C161.025 663.04 161.159 663.52 161.372 664H156.892C156.732 663.547 156.625 663.12 156.572 662.72C156.519 662.32 156.492 661.6 156.492 660.56V655.44C156.492 654.16 156.279 653.267 155.852 652.76C155.452 652.253 154.745 652 153.732 652H152.212V664H147.812V636ZM153.812 648C154.692 648 155.345 647.773 155.772 647.32C156.225 646.867 156.452 646.107 156.452 645.04V642.88C156.452 641.867 156.265 641.133 155.892 640.68C155.545 640.227 154.985 640 154.212 640H152.212V648H153.812ZM163.945 636H168.345V664H163.945V636ZM175.08 640H170.48V636H184.08V640H179.48V664H175.08V640ZM186.21 636H198.21V640H190.61V647.4H196.65V651.4H190.61V660H198.21V664H186.21V636ZM210.548 636H216.508L221.068 664H216.668L215.868 658.44V658.52H210.868L210.068 664H205.988L210.548 636ZM215.348 654.72L213.388 640.88H213.308L211.388 654.72H215.348ZM229.524 664.4C227.391 664.4 225.764 663.8 224.644 662.6C223.524 661.373 222.964 659.627 222.964 657.36V636H227.364V657.68C227.364 658.64 227.551 659.333 227.924 659.76C228.324 660.187 228.884 660.4 229.604 660.4C230.324 660.4 230.871 660.187 231.244 659.76C231.644 659.333 231.844 658.64 231.844 657.68V636H236.084V657.36C236.084 659.627 235.524 661.373 234.404 662.6C233.284 663.8 231.658 664.4 229.524 664.4ZM242.658 640H238.058V636H251.658V640H247.058V664H242.658V640ZM253.788 636H258.188V647.4H262.908V636H267.308V664H262.908V651.4H258.188V664H253.788V636ZM276.945 664.4C274.785 664.4 273.132 663.787 271.985 662.56C270.839 661.333 270.265 659.6 270.265 657.36V642.64C270.265 640.4 270.839 638.667 271.985 637.44C273.132 636.213 274.785 635.6 276.945 635.6C279.105 635.6 280.759 636.213 281.905 637.44C283.052 638.667 283.625 640.4 283.625 642.64V657.36C283.625 659.6 283.052 661.333 281.905 662.56C280.759 663.787 279.105 664.4 276.945 664.4ZM276.945 660.4C278.465 660.4 279.225 659.48 279.225 657.64V642.36C279.225 640.52 278.465 639.6 276.945 639.6C275.425 639.6 274.665 640.52 274.665 642.36V657.64C274.665 659.48 275.425 660.4 276.945 660.4ZM286.601 636H293.121C295.388 636 297.041 636.533 298.081 637.6C299.121 638.64 299.641 640.253 299.641 642.44V644.16C299.641 647.067 298.681 648.907 296.761 649.68V649.76C297.828 650.08 298.574 650.733 299.001 651.72C299.454 652.707 299.681 654.027 299.681 655.68V660.6C299.681 661.4 299.708 662.053 299.761 662.56C299.814 663.04 299.948 663.52 300.161 664H295.681C295.521 663.547 295.414 663.12 295.361 662.72C295.308 662.32 295.281 661.6 295.281 660.56V655.44C295.281 654.16 295.068 653.267 294.641 652.76C294.241 652.253 293.534 652 292.521 652H291.001V664H286.601V636ZM292.601 648C293.481 648 294.134 647.773 294.561 647.32C295.014 646.867 295.241 646.107 295.241 645.04V642.88C295.241 641.867 295.054 641.133 294.681 640.68C294.334 640.227 293.774 640 293.001 640H291.001V648H292.601ZM309.14 636H313.54V664H309.14V636ZM322.555 664.4C320.422 664.4 318.809 663.8 317.715 662.6C316.622 661.373 316.075 659.627 316.075 657.36V655.76H320.235V657.68C320.235 659.493 320.995 660.4 322.515 660.4C323.262 660.4 323.822 660.187 324.195 659.76C324.595 659.307 324.795 658.587 324.795 657.6C324.795 656.427 324.529 655.4 323.995 654.52C323.462 653.613 322.475 652.533 321.035 651.28C319.222 649.68 317.955 648.24 317.235 646.96C316.515 645.653 316.155 644.187 316.155 642.56C316.155 640.347 316.715 638.64 317.835 637.44C318.955 636.213 320.582 635.6 322.715 635.6C324.822 635.6 326.409 636.213 327.475 637.44C328.569 638.64 329.115 640.373 329.115 642.64V643.8H324.955V642.36C324.955 641.4 324.769 640.707 324.395 640.28C324.022 639.827 323.475 639.6 322.755 639.6C321.289 639.6 320.555 640.493 320.555 642.28C320.555 643.293 320.822 644.24 321.355 645.12C321.915 646 322.915 647.067 324.355 648.32C326.195 649.92 327.462 651.373 328.155 652.68C328.849 653.987 329.195 655.52 329.195 657.28C329.195 659.573 328.622 661.333 327.475 662.56C326.355 663.787 324.715 664.4 322.555 664.4ZM338.124 636H344.644C346.911 636 348.564 636.533 349.604 637.6C350.644 638.64 351.164 640.253 351.164 642.44V644.16C351.164 647.067 350.204 648.907 348.284 649.68V649.76C349.351 650.08 350.098 650.733 350.524 651.72C350.978 652.707 351.204 654.027 351.204 655.68V660.6C351.204 661.4 351.231 662.053 351.284 662.56C351.338 663.04 351.471 663.52 351.684 664H347.204C347.044 663.547 346.938 663.12 346.884 662.72C346.831 662.32 346.804 661.6 346.804 660.56V655.44C346.804 654.16 346.591 653.267 346.164 652.76C345.764 652.253 345.058 652 344.044 652H342.524V664H338.124V636ZM344.124 648C345.004 648 345.658 647.773 346.084 647.32C346.538 646.867 346.764 646.107 346.764 645.04V642.88C346.764 641.867 346.578 641.133 346.204 640.68C345.858 640.227 345.298 640 344.524 640H342.524V648H344.124ZM354.257 636H358.657V664H354.257V636ZM368.153 664.4C366.046 664.4 364.433 663.8 363.313 662.6C362.219 661.4 361.673 659.707 361.673 657.52V642.48C361.673 640.293 362.219 638.6 363.313 637.4C364.433 636.2 366.046 635.6 368.153 635.6C370.259 635.6 371.859 636.2 372.953 637.4C374.073 638.6 374.633 640.293 374.633 642.48V645.44H370.473V642.2C370.473 640.467 369.739 639.6 368.273 639.6C366.806 639.6 366.073 640.467 366.073 642.2V657.84C366.073 659.547 366.806 660.4 368.273 660.4C369.739 660.4 370.473 659.547 370.473 657.84V653.56H374.633V657.52C374.633 659.707 374.073 661.4 372.953 662.6C371.859 663.8 370.259 664.4 368.153 664.4ZM377.265 636H381.665V647.8L387.265 636H391.665L386.425 646.28L391.745 664H387.145L383.425 651.52L381.665 655.08V664H377.265V636ZM155.234 684H161.754C164.02 684 165.674 684.533 166.714 685.6C167.754 686.64 168.274 688.253 168.274 690.44V692.16C168.274 695.067 167.314 696.907 165.394 697.68V697.76C166.46 698.08 167.207 698.733 167.634 699.72C168.087 700.707 168.314 702.027 168.314 703.68V708.6C168.314 709.4 168.34 710.053 168.394 710.56C168.447 711.04 168.58 711.52 168.794 712H164.314C164.154 711.547 164.047 711.12 163.994 710.72C163.94 710.32 163.914 709.6 163.914 708.56V703.44C163.914 702.16 163.7 701.267 163.274 700.76C162.874 700.253 162.167 700 161.154 700H159.634V712H155.234V684ZM161.234 696C162.114 696 162.767 695.773 163.194 695.32C163.647 694.867 163.874 694.107 163.874 693.04V690.88C163.874 689.867 163.687 689.133 163.314 688.68C162.967 688.227 162.407 688 161.634 688H159.634V696H161.234ZM171.367 684H175.767V712H171.367V684ZM185.422 712.4C183.262 712.4 181.609 711.787 180.462 710.56C179.315 709.333 178.742 707.6 178.742 705.36V690.64C178.742 688.4 179.315 686.667 180.462 685.44C181.609 684.213 183.262 683.6 185.422 683.6C187.582 683.6 189.235 684.213 190.382 685.44C191.529 686.667 192.102 688.4 192.102 690.64V705.36C192.102 707.6 191.529 709.333 190.382 710.56C189.235 711.787 187.582 712.4 185.422 712.4ZM185.422 708.4C186.942 708.4 187.702 707.48 187.702 705.64V690.36C187.702 688.52 186.942 687.6 185.422 687.6C183.902 687.6 183.142 688.52 183.142 690.36V705.64C183.142 707.48 183.902 708.4 185.422 708.4ZM195.078 684H201.598C203.864 684 205.518 684.533 206.558 685.6C207.598 686.64 208.118 688.253 208.118 690.44V692.16C208.118 695.067 207.158 696.907 205.238 697.68V697.76C206.304 698.08 207.051 698.733 207.478 699.72C207.931 700.707 208.158 702.027 208.158 703.68V708.6C208.158 709.4 208.184 710.053 208.238 710.56C208.291 711.04 208.424 711.52 208.638 712H204.158C203.998 711.547 203.891 711.12 203.838 710.72C203.784 710.32 203.758 709.6 203.758 708.56V703.44C203.758 702.16 203.544 701.267 203.118 700.76C202.718 700.253 202.011 700 200.998 700H199.478V712H195.078V684ZM201.078 696C201.958 696 202.611 695.773 203.038 695.32C203.491 694.867 203.717 694.107 203.717 693.04V690.88C203.717 689.867 203.531 689.133 203.158 688.68C202.811 688.227 202.251 688 201.478 688H199.478V696H201.078ZM211.21 684H217.93C220.117 684 221.757 684.587 222.85 685.76C223.944 686.933 224.49 688.653 224.49 690.92V705.08C224.49 707.347 223.944 709.067 222.85 710.24C221.757 711.413 220.117 712 217.93 712H211.21V684ZM217.85 708C218.57 708 219.117 707.787 219.49 707.36C219.89 706.933 220.09 706.24 220.09 705.28V690.72C220.09 689.76 219.89 689.067 219.49 688.64C219.117 688.213 218.57 688 217.85 688H215.61V708H217.85ZM230.782 684H236.742L241.302 712H236.902L236.102 706.44V706.52H231.102L230.302 712H226.222L230.782 684ZM235.582 702.72L233.622 688.88H233.542L231.622 702.72H235.582ZM243.437 684H248.957L253.237 700.76H253.317V684H257.237V712H252.717L247.437 691.56H247.357V712H243.437V684ZM260.507 707.76H264.747V712H260.507V707.76Z" fill="black"/>
</g>
<defs>
<linearGradient id="paint0_linear" x1="210" y1="0" x2="210" y2="417" gradientUnits="userSpaceOnUse">
<stop stop-color="#2F80ED"/>
<stop offset="1" stop-color="white" stop-opacity="0"/>
</linearGradient>
<linearGradient id="paint1_linear" x1="210" y1="3" x2="210" y2="420" gradientUnits="userSpaceOnUse">
<stop offset="0.0729167" stop-color="#4C4C4C"/>
<stop offset="1" stop-color="white" stop-opacity="0"/>
</linearGradient>
<linearGradient id="paint2_linear" x1="210" y1="420" x2="210" y2="754" gradientUnits="userSpaceOnUse">
<stop stop-color="#FF0000"/>
<stop offset="1" stop-color="white" stop-opacity="0"/>
</linearGradient>
<clipPath id="clip0">
<rect width="420" height="750" fill="white"/>
</clipPath>
</defs>
</svg>
