<svg width="420" height="750" viewBox="0 0 420 750" fill="none" xmlns="http://www.w3.org/2000/svg">
<g clip-path="url(#clip0)">
<rect width="420" height="750" fill="#4A88FF"/>
<path d="M385 105V385H35V105H385ZM420 0H0V420H420V0ZM227.5 192.5V221.358L284.008 245L227.5 268.573V297.5L315 258.982V231L227.5 192.5ZM105 231.018V259L192.5 297.5V268.573L135.992 245L192.5 221.358V192.5L105 231.018Z" fill="black"/>
<path d="M385 105V385H35V105H385ZM420 0H0V420H420V0ZM227.5 192.5V221.358L284.008 245L227.5 268.573V297.5L315 258.982V231L227.5 192.5ZM105 231.018V259L192.5 297.5V268.573L135.992 245L192.5 221.358V192.5L105 231.018Z" fill="url(#paint0_linear)"/>
<rect y="420" width="420" height="334" fill="#E6F505"/>
<rect y="420" width="420" height="334" fill="url(#paint1_linear)"/>
<path d="M9.53922 472.4C7.43255 472.4 5.81922 471.8 4.69922 470.6C3.60589 469.4 3.05922 467.707 3.05922 465.52V450.48C3.05922 448.293 3.60589 446.6 4.69922 445.4C5.81922 444.2 7.43255 443.6 9.53922 443.6C11.6459 443.6 13.2459 444.2 14.3392 445.4C15.4592 446.6 16.0192 448.293 16.0192 450.48V453.44H11.8592V450.2C11.8592 448.467 11.1259 447.6 9.65922 447.6C8.19255 447.6 7.45922 448.467 7.45922 450.2V465.84C7.45922 467.547 8.19255 468.4 9.65922 468.4C11.1259 468.4 11.8592 467.547 11.8592 465.84V461.56H16.0192V465.52C16.0192 467.707 15.4592 469.4 14.3392 470.6C13.2459 471.8 11.6459 472.4 9.53922 472.4ZM25.0898 472.4C22.9298 472.4 21.2765 471.787 20.1298 470.56C18.9832 469.333 18.4098 467.6 18.4098 465.36V450.64C18.4098 448.4 18.9832 446.667 20.1298 445.44C21.2765 444.213 22.9298 443.6 25.0898 443.6C27.2498 443.6 28.9032 444.213 30.0498 445.44C31.1965 446.667 31.7698 448.4 31.7698 450.64V465.36C31.7698 467.6 31.1965 469.333 30.0498 470.56C28.9032 471.787 27.2498 472.4 25.0898 472.4ZM25.0898 468.4C26.6098 468.4 27.3698 467.48 27.3698 465.64V450.36C27.3698 448.52 26.6098 447.6 25.0898 447.6C23.5698 447.6 22.8098 448.52 22.8098 450.36V465.64C22.8098 467.48 23.5698 468.4 25.0898 468.4ZM34.7455 444H41.4655C43.6521 444 45.2921 444.587 46.3855 445.76C47.4788 446.933 48.0255 448.653 48.0255 450.92V465.08C48.0255 467.347 47.4788 469.067 46.3855 470.24C45.2921 471.413 43.6521 472 41.4655 472H34.7455V444ZM41.3855 468C42.1055 468 42.6521 467.787 43.0255 467.36C43.4255 466.933 43.6255 466.24 43.6255 465.28V450.72C43.6255 449.76 43.4255 449.067 43.0255 448.64C42.6521 448.213 42.1055 448 41.3855 448H39.1455V468H41.3855ZM50.9955 444H55.3955V472H50.9955V444ZM58.6908 444H64.2108L68.4908 460.76H68.5708V444H72.4908V472H67.9708L62.6908 451.56H62.6108V472H58.6908V444ZM82.0011 472.4C79.8678 472.4 78.2411 471.8 77.1211 470.6C76.0011 469.373 75.4411 467.627 75.4411 465.36V450.64C75.4411 448.373 76.0011 446.64 77.1211 445.44C78.2411 444.213 79.8678 443.6 82.0011 443.6C84.1344 443.6 85.7611 444.213 86.8811 445.44C88.0011 446.64 88.5611 448.373 88.5611 450.64V453.04H84.4011V450.36C84.4011 448.52 83.6411 447.6 82.1211 447.6C80.6011 447.6 79.8411 448.52 79.8411 450.36V465.68C79.8411 467.493 80.6011 468.4 82.1211 468.4C83.6411 468.4 84.4011 467.493 84.4011 465.68V460.2H82.2011V456.2H88.5611V465.36C88.5611 467.627 88.0011 469.373 86.8811 470.6C85.7611 471.8 84.1344 472.4 82.0011 472.4ZM97.7923 444H102.192V472H97.7923V444ZM111.208 472.4C109.074 472.4 107.461 471.8 106.368 470.6C105.274 469.373 104.728 467.627 104.728 465.36V463.76H108.888V465.68C108.888 467.493 109.648 468.4 111.168 468.4C111.914 468.4 112.474 468.187 112.848 467.76C113.248 467.307 113.448 466.587 113.448 465.6C113.448 464.427 113.181 463.4 112.648 462.52C112.114 461.613 111.128 460.533 109.688 459.28C107.874 457.68 106.608 456.24 105.888 454.96C105.168 453.653 104.808 452.187 104.808 450.56C104.808 448.347 105.368 446.64 106.488 445.44C107.608 444.213 109.234 443.6 111.368 443.6C113.474 443.6 115.061 444.213 116.128 445.44C117.221 446.64 117.768 448.373 117.768 450.64V451.8H113.608V450.36C113.608 449.4 113.421 448.707 113.048 448.28C112.674 447.827 112.128 447.6 111.408 447.6C109.941 447.6 109.208 448.493 109.208 450.28C109.208 451.293 109.474 452.24 110.008 453.12C110.568 454 111.568 455.067 113.008 456.32C114.848 457.92 116.114 459.373 116.808 460.68C117.501 461.987 117.848 463.52 117.848 465.28C117.848 467.573 117.274 469.333 116.128 470.56C115.008 471.787 113.368 472.4 111.208 472.4ZM130.177 444H136.137L140.697 472H136.297L135.497 466.44V466.52H130.497L129.697 472H125.617L130.177 444ZM134.977 462.72L133.017 448.88H132.937L131.017 462.72H134.977ZM149.238 444H154.758L159.038 460.76H159.118V444H163.038V472H158.518L153.238 451.56H153.158V472H149.238V444ZM166.308 444H178.308V448H170.708V455.4H176.748V459.4H170.708V468H178.308V472H166.308V444ZM179.799 444H184.039L185.999 465.52H186.079L188.159 444H192.959L195.039 465.52H195.119L197.079 444H200.879L198.039 472H192.559L190.559 453.12H190.479L188.479 472H182.639L179.799 444ZM215.231 472.4C213.098 472.4 211.484 471.8 210.391 470.6C209.298 469.373 208.751 467.627 208.751 465.36V463.76H212.911V465.68C212.911 467.493 213.671 468.4 215.191 468.4C215.938 468.4 216.498 468.187 216.871 467.76C217.271 467.307 217.471 466.587 217.471 465.6C217.471 464.427 217.204 463.4 216.671 462.52C216.138 461.613 215.151 460.533 213.711 459.28C211.898 457.68 210.631 456.24 209.911 454.96C209.191 453.653 208.831 452.187 208.831 450.56C208.831 448.347 209.391 446.64 210.511 445.44C211.631 444.213 213.258 443.6 215.391 443.6C217.498 443.6 219.084 444.213 220.151 445.44C221.244 446.64 221.791 448.373 221.791 450.64V451.8H217.631V450.36C217.631 449.4 217.444 448.707 217.071 448.28C216.698 447.827 216.151 447.6 215.431 447.6C213.964 447.6 213.231 448.493 213.231 450.28C213.231 451.293 213.498 452.24 214.031 453.12C214.591 454 215.591 455.067 217.031 456.32C218.871 457.92 220.138 459.373 220.831 460.68C221.524 461.987 221.871 463.52 221.871 465.28C221.871 467.573 221.298 469.333 220.151 470.56C219.031 471.787 217.391 472.4 215.231 472.4ZM224.394 444H228.794V455.8L234.394 444H238.794L233.554 454.28L238.874 472H234.274L230.554 459.52L228.794 463.08V472H224.394V444ZM240.956 444H245.356V472H240.956V444ZM248.652 444H253.052V468H260.292V472H248.652V444ZM262.402 444H266.802V468H274.042V472H262.402V444ZM282.558 444H286.958V472H282.558V444ZM296.66 444H301.06V468H308.3V472H296.66V444ZM310.41 444H322.41V448H314.81V455.4H320.85V459.4H314.81V468H322.41V472H310.41V444ZM328.341 444H334.301L338.861 472H334.461L333.661 466.44V466.52H328.661L327.861 472H323.781L328.341 444ZM333.141 462.72L331.181 448.88H331.101L329.181 462.72H333.141ZM340.995 444H347.515C349.782 444 351.435 444.533 352.475 445.6C353.515 446.64 354.035 448.253 354.035 450.44V452.16C354.035 455.067 353.075 456.907 351.155 457.68V457.76C352.222 458.08 352.969 458.733 353.395 459.72C353.849 460.707 354.075 462.027 354.075 463.68V468.6C354.075 469.4 354.102 470.053 354.155 470.56C354.209 471.04 354.342 471.52 354.555 472H350.075C349.915 471.547 349.809 471.12 349.755 470.72C349.702 470.32 349.675 469.6 349.675 468.56V463.44C349.675 462.16 349.462 461.267 349.035 460.76C348.635 460.253 347.929 460 346.915 460H345.395V472H340.995V444ZM346.995 456C347.875 456 348.529 455.773 348.955 455.32C349.409 454.867 349.635 454.107 349.635 453.04V450.88C349.635 449.867 349.449 449.133 349.075 448.68C348.729 448.227 348.169 448 347.395 448H345.395V456H346.995ZM357.128 444H362.648L366.928 460.76H367.008V444H370.928V472H366.408L361.128 451.56H361.048V472H357.128V444ZM377.639 448H373.039V444H386.639V448H382.039V472H377.639V448ZM395.175 444H399.575V472H395.175V444ZM402.87 444H408.39L412.67 460.76H412.75V444H416.67V472H412.15L406.87 451.56H406.79V472H402.87V444ZM42.2284 496H37.6284V492H51.2284V496H46.6284V520H42.2284V496ZM53.3588 492H57.7588V503.4H62.4788V492H66.8788V520H62.4788V507.4H57.7588V520H53.3588V492ZM70.1556 492H74.5556V520H70.1556V492ZM83.5709 520.4C81.4376 520.4 79.8243 519.8 78.7309 518.6C77.6376 517.373 77.0909 515.627 77.0909 513.36V511.76H81.2509V513.68C81.2509 515.493 82.0109 516.4 83.5309 516.4C84.2776 516.4 84.8376 516.187 85.2109 515.76C85.6109 515.307 85.8109 514.587 85.8109 513.6C85.8109 512.427 85.5443 511.4 85.0109 510.52C84.4776 509.613 83.4909 508.533 82.0509 507.28C80.2376 505.68 78.9709 504.24 78.2509 502.96C77.5309 501.653 77.1709 500.187 77.1709 498.56C77.1709 496.347 77.7309 494.64 78.8509 493.44C79.9709 492.213 81.5976 491.6 83.7309 491.6C85.8376 491.6 87.4243 492.213 88.4909 493.44C89.5843 494.64 90.1309 496.373 90.1309 498.64V499.8H85.9709V498.36C85.9709 497.4 85.7843 496.707 85.4109 496.28C85.0376 495.827 84.4909 495.6 83.7709 495.6C82.3043 495.6 81.5709 496.493 81.5709 498.28C81.5709 499.293 81.8376 500.24 82.3709 501.12C82.9309 502 83.9309 503.067 85.3709 504.32C87.2109 505.92 88.4776 507.373 89.1709 508.68C89.8643 509.987 90.2109 511.52 90.2109 513.28C90.2109 515.573 89.6376 517.333 88.4909 518.56C87.3709 519.787 85.7309 520.4 83.5709 520.4ZM99.14 492H103.54V516H110.78V520H99.14V492ZM119.094 520.4C116.934 520.4 115.28 519.787 114.134 518.56C112.987 517.333 112.414 515.6 112.414 513.36V498.64C112.414 496.4 112.987 494.667 114.134 493.44C115.28 492.213 116.934 491.6 119.094 491.6C121.254 491.6 122.907 492.213 124.054 493.44C125.2 494.667 125.774 496.4 125.774 498.64V513.36C125.774 515.6 125.2 517.333 124.054 518.56C122.907 519.787 121.254 520.4 119.094 520.4ZM119.094 516.4C120.614 516.4 121.374 515.48 121.374 513.64V498.36C121.374 496.52 120.614 495.6 119.094 495.6C117.574 495.6 116.814 496.52 116.814 498.36V513.64C116.814 515.48 117.574 516.4 119.094 516.4ZM134.949 520.4C132.843 520.4 131.229 519.8 130.109 518.6C129.016 517.4 128.469 515.707 128.469 513.52V498.48C128.469 496.293 129.016 494.6 130.109 493.4C131.229 492.2 132.843 491.6 134.949 491.6C137.056 491.6 138.656 492.2 139.749 493.4C140.869 494.6 141.429 496.293 141.429 498.48V501.44H137.269V498.2C137.269 496.467 136.536 495.6 135.069 495.6C133.603 495.6 132.869 496.467 132.869 498.2V513.84C132.869 515.547 133.603 516.4 135.069 516.4C136.536 516.4 137.269 515.547 137.269 513.84V509.56H141.429V513.52C141.429 515.707 140.869 517.4 139.749 518.6C138.656 519.8 137.056 520.4 134.949 520.4ZM144.062 492H148.462V503.8L154.062 492H158.462L153.222 502.28L158.542 520H153.942L150.222 507.52L148.462 511.08V520H144.062V492ZM160.624 492H167.344C169.531 492 171.171 492.587 172.264 493.76C173.358 494.933 173.904 496.653 173.904 498.92V513.08C173.904 515.347 173.358 517.067 172.264 518.24C171.171 519.413 169.531 520 167.344 520H160.624V492ZM167.264 516C167.984 516 168.531 515.787 168.904 515.36C169.304 514.933 169.504 514.24 169.504 513.28V498.72C169.504 497.76 169.304 497.067 168.904 496.64C168.531 496.213 167.984 496 167.264 496H165.024V516H167.264ZM183.234 520.4C181.074 520.4 179.421 519.787 178.274 518.56C177.128 517.333 176.554 515.6 176.554 513.36V498.64C176.554 496.4 177.128 494.667 178.274 493.44C179.421 492.213 181.074 491.6 183.234 491.6C185.394 491.6 187.048 492.213 188.194 493.44C189.341 494.667 189.914 496.4 189.914 498.64V513.36C189.914 515.6 189.341 517.333 188.194 518.56C187.048 519.787 185.394 520.4 183.234 520.4ZM183.234 516.4C184.754 516.4 185.514 515.48 185.514 513.64V498.36C185.514 496.52 184.754 495.6 183.234 495.6C181.714 495.6 180.954 496.52 180.954 498.36V513.64C180.954 515.48 181.714 516.4 183.234 516.4ZM191.85 492H196.09L198.05 513.52H198.13L200.21 492H205.01L207.09 513.52H207.17L209.13 492H212.93L210.09 520H204.61L202.61 501.12H202.53L200.53 520H194.69L191.85 492ZM215.156 492H220.676L224.956 508.76H225.036V492H228.956V520H224.436L219.156 499.56H219.076V520H215.156V492ZM232.226 515.76H236.466V520H232.226V515.76ZM246.171 492H250.571V520H246.171V492ZM260.273 492H264.673V503.8L270.273 492H274.673L269.433 502.28L274.753 520H270.153L266.433 507.52L264.673 511.08V520H260.273V492ZM276.835 492H282.355L286.635 508.76H286.715V492H290.635V520H286.115L280.835 499.56H280.755V520H276.835V492ZM300.266 520.4C298.106 520.4 296.452 519.787 295.306 518.56C294.159 517.333 293.586 515.6 293.586 513.36V498.64C293.586 496.4 294.159 494.667 295.306 493.44C296.452 492.213 298.106 491.6 300.266 491.6C302.426 491.6 304.079 492.213 305.226 493.44C306.372 494.667 306.946 496.4 306.946 498.64V513.36C306.946 515.6 306.372 517.333 305.226 518.56C304.079 519.787 302.426 520.4 300.266 520.4ZM300.266 516.4C301.786 516.4 302.546 515.48 302.546 513.64V498.36C302.546 496.52 301.786 495.6 300.266 495.6C298.746 495.6 297.986 496.52 297.986 498.36V513.64C297.986 515.48 298.746 516.4 300.266 516.4ZM308.881 492H313.121L315.081 513.52H315.161L317.241 492H322.041L324.121 513.52H324.201L326.161 492H329.961L327.121 520H321.641L319.641 501.12H319.561L317.561 520H311.721L308.881 492ZM342.033 496H337.433V492H351.033V496H346.433V520H342.033V496ZM353.163 492H357.563V503.4H362.283V492H366.683V520H362.283V507.4H357.563V520H353.163V492ZM369.96 492H381.96V496H374.36V503.4H380.4V507.4H374.36V516H381.96V520H369.96V492ZM13.6517 540H20.2917C22.5584 540 24.2117 540.533 25.2517 541.6C26.2917 542.64 26.8117 544.253 26.8117 546.44V547.56C26.8117 549 26.5717 550.173 26.0917 551.08C25.6384 551.987 24.9317 552.64 23.9717 553.04V553.12C26.1584 553.867 27.2517 555.813 27.2517 558.96V561.36C27.2517 563.52 26.6784 565.173 25.5317 566.32C24.4117 567.44 22.7584 568 20.5717 568H13.6517V540ZM19.7717 551.4C20.6517 551.4 21.3051 551.173 21.7317 550.72C22.1851 550.267 22.4117 549.507 22.4117 548.44V546.88C22.4117 545.867 22.2251 545.133 21.8517 544.68C21.5051 544.227 20.9451 544 20.1717 544H18.0517V551.4H19.7717ZM20.5717 564C21.3451 564 21.9184 563.8 22.2917 563.4C22.6651 562.973 22.8517 562.253 22.8517 561.24V558.8C22.8517 557.52 22.6251 556.64 22.1717 556.16C21.7451 555.653 21.0251 555.4 20.0117 555.4H18.0517V564H20.5717ZM33.2236 540H39.1836L43.7436 568H39.3436L38.5436 562.44V562.52H33.5436L32.7436 568H28.6636L33.2236 540ZM38.0236 558.72L36.0636 544.88H35.9836L34.0636 558.72H38.0236ZM51.4811 568.4C49.3478 568.4 47.7344 567.8 46.6411 566.6C45.5478 565.373 45.0011 563.627 45.0011 561.36V559.76H49.1611V561.68C49.1611 563.493 49.9211 564.4 51.4411 564.4C52.1878 564.4 52.7478 564.187 53.1211 563.76C53.5211 563.307 53.7211 562.587 53.7211 561.6C53.7211 560.427 53.4544 559.4 52.9211 558.52C52.3878 557.613 51.4011 556.533 49.9611 555.28C48.1478 553.68 46.8811 552.24 46.1611 550.96C45.4411 549.653 45.0811 548.187 45.0811 546.56C45.0811 544.347 45.6411 542.64 46.7611 541.44C47.8811 540.213 49.5078 539.6 51.6411 539.6C53.7478 539.6 55.3344 540.213 56.4011 541.44C57.4944 542.64 58.0411 544.373 58.0411 546.64V547.8H53.8811V546.36C53.8811 545.4 53.6944 544.707 53.3211 544.28C52.9478 543.827 52.4011 543.6 51.6811 543.6C50.2144 543.6 49.4811 544.493 49.4811 546.28C49.4811 547.293 49.7478 548.24 50.2811 549.12C50.8411 550 51.8411 551.067 53.2811 552.32C55.1211 553.92 56.3878 555.373 57.0811 556.68C57.7744 557.987 58.1211 559.52 58.1211 561.28C58.1211 563.573 57.5478 565.333 56.4011 566.56C55.2811 567.787 53.6411 568.4 51.4811 568.4ZM60.6439 540H65.0439V568H60.6439V540ZM74.5392 568.4C72.4326 568.4 70.8192 567.8 69.6992 566.6C68.6059 565.4 68.0592 563.707 68.0592 561.52V546.48C68.0592 544.293 68.6059 542.6 69.6992 541.4C70.8192 540.2 72.4326 539.6 74.5392 539.6C76.6459 539.6 78.2459 540.2 79.3392 541.4C80.4592 542.6 81.0192 544.293 81.0192 546.48V549.44H76.8592V546.2C76.8592 544.467 76.1259 543.6 74.6592 543.6C73.1926 543.6 72.4592 544.467 72.4592 546.2V561.84C72.4592 563.547 73.1926 564.4 74.6592 564.4C76.1259 564.4 76.8592 563.547 76.8592 561.84V557.56H81.0192V561.52C81.0192 563.707 80.4592 565.4 79.3392 566.6C78.2459 567.8 76.6459 568.4 74.5392 568.4ZM89.4498 568.4C87.3165 568.4 85.7032 567.8 84.6098 566.6C83.5165 565.373 82.9698 563.627 82.9698 561.36V559.76H87.1298V561.68C87.1298 563.493 87.8898 564.4 89.4098 564.4C90.1565 564.4 90.7165 564.187 91.0898 563.76C91.4898 563.307 91.6898 562.587 91.6898 561.6C91.6898 560.427 91.4232 559.4 90.8898 558.52C90.3565 557.613 89.3698 556.533 87.9298 555.28C86.1165 553.68 84.8498 552.24 84.1298 550.96C83.4098 549.653 83.0498 548.187 83.0498 546.56C83.0498 544.347 83.6098 542.64 84.7298 541.44C85.8498 540.213 87.4765 539.6 89.6098 539.6C91.7165 539.6 93.3032 540.213 94.3698 541.44C95.4632 542.64 96.0098 544.373 96.0098 546.64V547.8H91.8498V546.36C91.8498 545.4 91.6632 544.707 91.2898 544.28C90.9165 543.827 90.3698 543.6 89.6498 543.6C88.1832 543.6 87.4498 544.493 87.4498 546.28C87.4498 547.293 87.7165 548.24 88.2498 549.12C88.8098 550 89.8098 551.067 91.2498 552.32C93.0898 553.92 94.3565 555.373 95.0498 556.68C95.7432 557.987 96.0898 559.52 96.0898 561.28C96.0898 563.573 95.5165 565.333 94.3698 566.56C93.2498 567.787 91.6098 568.4 89.4498 568.4ZM111.379 568.4C109.219 568.4 107.566 567.787 106.419 566.56C105.272 565.333 104.699 563.6 104.699 561.36V546.64C104.699 544.4 105.272 542.667 106.419 541.44C107.566 540.213 109.219 539.6 111.379 539.6C113.539 539.6 115.192 540.213 116.339 541.44C117.486 542.667 118.059 544.4 118.059 546.64V561.36C118.059 563.6 117.486 565.333 116.339 566.56C115.192 567.787 113.539 568.4 111.379 568.4ZM111.379 564.4C112.899 564.4 113.659 563.48 113.659 561.64V546.36C113.659 544.52 112.899 543.6 111.379 543.6C109.859 543.6 109.099 544.52 109.099 546.36V561.64C109.099 563.48 109.859 564.4 111.379 564.4ZM121.035 540H132.675V544H125.435V551.8H131.115V555.8H125.435V568H121.035V540ZM141.191 540H147.671C149.857 540 151.497 540.587 152.591 541.76C153.684 542.933 154.231 544.653 154.231 546.92V549.68C154.231 551.947 153.684 553.667 152.591 554.84C151.497 556.013 149.857 556.6 147.671 556.6H145.591V568H141.191V540ZM147.671 552.6C148.391 552.6 148.924 552.4 149.271 552C149.644 551.6 149.831 550.92 149.831 549.96V546.64C149.831 545.68 149.644 545 149.271 544.6C148.924 544.2 148.391 544 147.671 544H145.591V552.6H147.671ZM160.465 556.08L155.145 540H159.825L162.825 550.28H162.905L165.905 540H170.185L164.865 556.08V568H160.465V556.08ZM175.764 544H171.164V540H184.764V544H180.164V568H175.764V544ZM186.894 540H191.294V551.4H196.014V540H200.414V568H196.014V555.4H191.294V568H186.894V540ZM210.051 568.4C207.891 568.4 206.237 567.787 205.091 566.56C203.944 565.333 203.371 563.6 203.371 561.36V546.64C203.371 544.4 203.944 542.667 205.091 541.44C206.237 540.213 207.891 539.6 210.051 539.6C212.211 539.6 213.864 540.213 215.011 541.44C216.157 542.667 216.731 544.4 216.731 546.64V561.36C216.731 563.6 216.157 565.333 215.011 566.56C213.864 567.787 212.211 568.4 210.051 568.4ZM210.051 564.4C211.571 564.4 212.331 563.48 212.331 561.64V546.36C212.331 544.52 211.571 543.6 210.051 543.6C208.531 543.6 207.771 544.52 207.771 546.36V561.64C207.771 563.48 208.531 564.4 210.051 564.4ZM219.706 540H225.226L229.506 556.76H229.586V540H233.506V568H228.986L223.706 547.56H223.626V568H219.706V540ZM243.183 540H247.583V551.4H252.303V540H256.703V568H252.303V555.4H247.583V568H243.183V540ZM266.34 568.4C264.18 568.4 262.527 567.787 261.38 566.56C260.233 565.333 259.66 563.6 259.66 561.36V546.64C259.66 544.4 260.233 542.667 261.38 541.44C262.527 540.213 264.18 539.6 266.34 539.6C268.5 539.6 270.153 540.213 271.3 541.44C272.447 542.667 273.02 544.4 273.02 546.64V561.36C273.02 563.6 272.447 565.333 271.3 566.56C270.153 567.787 268.5 568.4 266.34 568.4ZM266.34 564.4C267.86 564.4 268.62 563.48 268.62 561.64V546.36C268.62 544.52 267.86 543.6 266.34 543.6C264.82 543.6 264.06 544.52 264.06 546.36V561.64C264.06 563.48 264.82 564.4 266.34 564.4ZM274.955 540H279.195L281.155 561.52H281.235L283.315 540H288.115L290.195 561.52H290.275L292.235 540H296.035L293.195 568H287.715L285.715 549.12H285.635L283.635 568H277.795L274.955 540ZM298.261 540H310.261V544H302.661V551.4H308.701V555.4H302.661V564H310.261V568H298.261V540ZM311.632 540H316.072L318.952 561.72H319.032L321.912 540H325.952L321.712 568H315.872L311.632 540ZM328.066 540H340.066V544H332.466V551.4H338.506V555.4H332.466V564H340.066V568H328.066V540ZM342.597 540H349.117C351.384 540 353.037 540.533 354.077 541.6C355.117 542.64 355.637 544.253 355.637 546.44V548.16C355.637 551.067 354.677 552.907 352.757 553.68V553.76C353.824 554.08 354.57 554.733 354.997 555.72C355.45 556.707 355.677 558.027 355.677 559.68V564.6C355.677 565.4 355.704 566.053 355.757 566.56C355.81 567.04 355.944 567.52 356.157 568H351.677C351.517 567.547 351.41 567.12 351.357 566.72C351.304 566.32 351.277 565.6 351.277 564.56V559.44C351.277 558.16 351.064 557.267 350.637 556.76C350.237 556.253 349.53 556 348.517 556H346.997V568H342.597V540ZM348.597 552C349.477 552 350.13 551.773 350.557 551.32C351.01 550.867 351.237 550.107 351.237 549.04V546.88C351.237 545.867 351.05 545.133 350.677 544.68C350.33 544.227 349.77 544 348.997 544H346.997V552H348.597ZM360.365 568H358.925V563.76H363.165V567.56L360.965 572.8H358.925L360.365 568ZM372.87 540H377.27V568H372.87V540ZM380.446 540H384.926L383.846 549.04H381.486L380.446 540ZM388.105 540H394.385L397.185 560.04H397.265L400.065 540H406.345V568H402.185V546.8H402.105L398.905 568H395.225L392.025 546.8H391.945V568H388.105V540ZM4.08141 588H8.48141V616H4.08141V588ZM11.7767 588H17.2967L21.5767 604.76H21.6567V588H25.5767V616H21.0567L15.7767 595.56H15.6967V616H11.7767V588ZM32.287 592H27.687V588H41.287V592H36.687V616H32.287V592ZM43.4173 588H55.4173V592H47.8173V599.4H53.8573V603.4H47.8173V612H55.4173V616H43.4173V588ZM57.9486 588H64.4686C66.7353 588 68.3886 588.533 69.4286 589.6C70.4686 590.64 70.9886 592.253 70.9886 594.44V596.16C70.9886 599.067 70.0286 600.907 68.1086 601.68V601.76C69.1753 602.08 69.9219 602.733 70.3486 603.72C70.8019 604.707 71.0286 606.027 71.0286 607.68V612.6C71.0286 613.4 71.0553 614.053 71.1086 614.56C71.1619 615.04 71.2953 615.52 71.5086 616H67.0286C66.8686 615.547 66.7619 615.12 66.7086 614.72C66.6553 614.32 66.6286 613.6 66.6286 612.56V607.44C66.6286 606.16 66.4153 605.267 65.9886 604.76C65.5886 604.253 64.8819 604 63.8686 604H62.3486V616H57.9486V588ZM63.9486 600C64.8286 600 65.4819 599.773 65.9086 599.32C66.3619 598.867 66.5886 598.107 66.5886 597.04V594.88C66.5886 593.867 66.4019 593.133 66.0286 592.68C65.6819 592.227 65.1219 592 64.3486 592H62.3486V600H63.9486ZM74.0814 588H86.0814V592H78.4814V599.4H84.5214V603.4H78.4814V612H86.0814V616H74.0814V588ZM94.4108 616.4C92.2774 616.4 90.6641 615.8 89.5708 614.6C88.4774 613.373 87.9308 611.627 87.9308 609.36V607.76H92.0908V609.68C92.0908 611.493 92.8508 612.4 94.3708 612.4C95.1174 612.4 95.6774 612.187 96.0508 611.76C96.4508 611.307 96.6508 610.587 96.6508 609.6C96.6508 608.427 96.3841 607.4 95.8508 606.52C95.3174 605.613 94.3308 604.533 92.8908 603.28C91.0774 601.68 89.8108 600.24 89.0908 598.96C88.3708 597.653 88.0108 596.187 88.0108 594.56C88.0108 592.347 88.5708 590.64 89.6908 589.44C90.8108 588.213 92.4374 587.6 94.5708 587.6C96.6774 587.6 98.2641 588.213 99.3308 589.44C100.424 590.64 100.971 592.373 100.971 594.64V595.8H96.8108V594.36C96.8108 593.4 96.6241 592.707 96.2508 592.28C95.8774 591.827 95.3308 591.6 94.6108 591.6C93.1441 591.6 92.4108 592.493 92.4108 594.28C92.4108 595.293 92.6774 596.24 93.2108 597.12C93.7708 598 94.7708 599.067 96.2108 600.32C98.0508 601.92 99.3174 603.373 100.011 604.68C100.704 605.987 101.051 607.52 101.051 609.28C101.051 611.573 100.477 613.333 99.3308 614.56C98.2108 615.787 96.5708 616.4 94.4108 616.4ZM107.014 592H102.414V588H116.014V592H111.414V616H107.014V592ZM118.144 588H130.144V592H122.544V599.4H128.584V603.4H122.544V612H130.144V616H118.144V588ZM132.675 588H139.395C141.582 588 143.222 588.587 144.315 589.76C145.408 590.933 145.955 592.653 145.955 594.92V609.08C145.955 611.347 145.408 613.067 144.315 614.24C143.222 615.413 141.582 616 139.395 616H132.675V588ZM139.315 612C140.035 612 140.582 611.787 140.955 611.36C141.355 610.933 141.555 610.24 141.555 609.28V594.72C141.555 593.76 141.355 593.067 140.955 592.64C140.582 592.213 140.035 592 139.315 592H137.075V612H139.315ZM155.331 588H159.731V616H155.331V588ZM163.027 588H168.547L172.827 604.76H172.907V588H176.827V616H172.307L167.027 595.56H166.947V616H163.027V588ZM185.463 588H189.703L191.663 609.52H191.743L193.823 588H198.623L200.703 609.52H200.783L202.743 588H206.543L203.703 616H198.223L196.223 597.12H196.143L194.143 616H188.303L185.463 588ZM208.769 588H220.769V592H213.169V599.4H219.209V603.4H213.169V612H220.769V616H208.769V588ZM223.3 588H229.94C232.207 588 233.86 588.533 234.9 589.6C235.94 590.64 236.46 592.253 236.46 594.44V595.56C236.46 597 236.22 598.173 235.74 599.08C235.287 599.987 234.58 600.64 233.62 601.04V601.12C235.807 601.867 236.9 603.813 236.9 606.96V609.36C236.9 611.52 236.327 613.173 235.18 614.32C234.06 615.44 232.407 616 230.22 616H223.3V588ZM229.42 599.4C230.3 599.4 230.953 599.173 231.38 598.72C231.833 598.267 232.06 597.507 232.06 596.44V594.88C232.06 593.867 231.873 593.133 231.5 592.68C231.153 592.227 230.593 592 229.82 592H227.7V599.4H229.42ZM230.22 612C230.993 612 231.567 611.8 231.94 611.4C232.313 610.973 232.5 610.253 232.5 609.24V606.8C232.5 605.52 232.273 604.64 231.82 604.16C231.393 603.653 230.673 603.4 229.66 603.4H227.7V612H230.22ZM245.878 588H252.598C254.785 588 256.425 588.587 257.518 589.76C258.612 590.933 259.158 592.653 259.158 594.92V609.08C259.158 611.347 258.612 613.067 257.518 614.24C256.425 615.413 254.785 616 252.598 616H245.878V588ZM252.518 612C253.238 612 253.785 611.787 254.158 611.36C254.558 610.933 254.758 610.24 254.758 609.28V594.72C254.758 593.76 254.558 593.067 254.158 592.64C253.785 592.213 253.238 592 252.518 592H250.278V612H252.518ZM262.128 588H274.128V592H266.528V599.4H272.568V603.4H266.528V612H274.128V616H262.128V588ZM275.5 588H279.94L282.82 609.72H282.9L285.78 588H289.82L285.58 616H279.74L275.5 588ZM291.933 588H303.933V592H296.333V599.4H302.373V603.4H296.333V612H303.933V616H291.933V588ZM306.464 588H310.864V612H318.104V616H306.464V588ZM326.418 616.4C324.258 616.4 322.605 615.787 321.458 614.56C320.311 613.333 319.738 611.6 319.738 609.36V594.64C319.738 592.4 320.311 590.667 321.458 589.44C322.605 588.213 324.258 587.6 326.418 587.6C328.578 587.6 330.231 588.213 331.378 589.44C332.525 590.667 333.098 592.4 333.098 594.64V609.36C333.098 611.6 332.525 613.333 331.378 614.56C330.231 615.787 328.578 616.4 326.418 616.4ZM326.418 612.4C327.938 612.4 328.698 611.48 328.698 609.64V594.36C328.698 592.52 327.938 591.6 326.418 591.6C324.898 591.6 324.138 592.52 324.138 594.36V609.64C324.138 611.48 324.898 612.4 326.418 612.4ZM336.074 588H342.554C344.74 588 346.38 588.587 347.474 589.76C348.567 590.933 349.114 592.653 349.114 594.92V597.68C349.114 599.947 348.567 601.667 347.474 602.84C346.38 604.013 344.74 604.6 342.554 604.6H340.474V616H336.074V588ZM342.554 600.6C343.274 600.6 343.807 600.4 344.154 600C344.527 599.6 344.714 598.92 344.714 597.96V594.64C344.714 593.68 344.527 593 344.154 592.6C343.807 592.2 343.274 592 342.554 592H340.474V600.6H342.554ZM351.503 588H357.783L360.583 608.04H360.663L363.463 588H369.743V616H365.583V594.8H365.503L362.303 616H358.623L355.423 594.8H355.343V616H351.503V588ZM373.027 588H385.027V592H377.427V599.4H383.467V603.4H377.427V612H385.027V616H373.027V588ZM387.558 588H393.078L397.358 604.76H397.438V588H401.358V616H396.838L391.558 595.56H391.478V616H387.558V588ZM408.068 592H403.468V588H417.068V592H412.468V616H408.068V592ZM17.9697 636H23.9297L28.4897 664H24.0897L23.2897 658.44V658.52H18.2897L17.4897 664H13.4097L17.9697 636ZM22.7697 654.72L20.8097 640.88H20.7297L18.8097 654.72H22.7697ZM30.6244 636H36.1444L40.4244 652.76H40.5044V636H44.4244V664H39.9044L34.6244 643.56H34.5444V664H30.6244V636ZM47.6947 636H54.4147C56.6014 636 58.2414 636.587 59.3347 637.76C60.428 638.933 60.9747 640.653 60.9747 642.92V657.08C60.9747 659.347 60.428 661.067 59.3347 662.24C58.2414 663.413 56.6014 664 54.4147 664H47.6947V636ZM54.3347 660C55.0547 660 55.6014 659.787 55.9747 659.36C56.3747 658.933 56.5747 658.24 56.5747 657.28V642.72C56.5747 641.76 56.3747 641.067 55.9747 640.64C55.6014 640.213 55.0547 640 54.3347 640H52.0947V660H54.3347ZM70.3509 636H81.9909V640H74.7509V647.8H80.4309V651.8H74.7509V664H70.3509V636ZM84.1009 636H90.6209C92.8876 636 94.5409 636.533 95.5809 637.6C96.6209 638.64 97.1409 640.253 97.1409 642.44V644.16C97.1409 647.067 96.1809 648.907 94.2609 649.68V649.76C95.3276 650.08 96.0743 650.733 96.5009 651.72C96.9543 652.707 97.1809 654.027 97.1809 655.68V660.6C97.1809 661.4 97.2076 662.053 97.2609 662.56C97.3143 663.04 97.4476 663.52 97.6609 664H93.1809C93.0209 663.547 92.9143 663.12 92.8609 662.72C92.8076 662.32 92.7809 661.6 92.7809 660.56V655.44C92.7809 654.16 92.5676 653.267 92.1409 652.76C91.7409 652.253 91.0343 652 90.0209 652H88.5009V664H84.1009V636ZM90.1009 648C90.9809 648 91.6343 647.773 92.0609 647.32C92.5143 646.867 92.7409 646.107 92.7409 645.04V642.88C92.7409 641.867 92.5543 641.133 92.1809 640.68C91.8343 640.227 91.2743 640 90.5009 640H88.5009V648H90.1009ZM106.594 664.4C104.434 664.4 102.78 663.787 101.634 662.56C100.487 661.333 99.9137 659.6 99.9137 657.36V642.64C99.9137 640.4 100.487 638.667 101.634 637.44C102.78 636.213 104.434 635.6 106.594 635.6C108.754 635.6 110.407 636.213 111.554 637.44C112.7 638.667 113.274 640.4 113.274 642.64V657.36C113.274 659.6 112.7 661.333 111.554 662.56C110.407 663.787 108.754 664.4 106.594 664.4ZM106.594 660.4C108.114 660.4 108.874 659.48 108.874 657.64V642.36C108.874 640.52 108.114 639.6 106.594 639.6C105.074 639.6 104.314 640.52 104.314 642.36V657.64C104.314 659.48 105.074 660.4 106.594 660.4ZM116.249 636H121.769L126.049 652.76H126.129V636H130.049V664H125.529L120.249 643.56H120.169V664H116.249V636ZM136.76 640H132.16V636H145.76V640H141.16V664H136.76V640ZM144.32 648H153.12V652H144.32V648ZM155.742 636H167.742V640H160.142V647.4H166.182V651.4H160.142V660H167.742V664H155.742V636ZM170.273 636H175.793L180.073 652.76H180.153V636H184.073V664H179.553L174.273 643.56H174.193V664H170.273V636ZM187.343 636H194.063C196.25 636 197.89 636.587 198.983 637.76C200.076 638.933 200.623 640.653 200.623 642.92V657.08C200.623 659.347 200.076 661.067 198.983 662.24C197.89 663.413 196.25 664 194.063 664H187.343V636ZM193.983 660C194.703 660 195.25 659.787 195.623 659.36C196.023 658.933 196.223 658.24 196.223 657.28V642.72C196.223 641.76 196.023 641.067 195.623 640.64C195.25 640.213 194.703 640 193.983 640H191.743V660H193.983ZM209.999 636H214.399V660H221.639V664H209.999V636ZM227.306 636H233.266L237.826 664H233.426L232.626 658.44V658.52H227.626L226.826 664H222.746L227.306 636ZM232.106 654.72L230.146 640.88H230.066L228.146 654.72H232.106ZM239.96 636H245.48L249.76 652.76H249.84V636H253.76V664H249.24L243.96 643.56H243.88V664H239.96V636ZM263.271 664.4C261.137 664.4 259.511 663.8 258.391 662.6C257.271 661.373 256.711 659.627 256.711 657.36V642.64C256.711 640.373 257.271 638.64 258.391 637.44C259.511 636.213 261.137 635.6 263.271 635.6C265.404 635.6 267.031 636.213 268.151 637.44C269.271 638.64 269.831 640.373 269.831 642.64V645.04H265.671V642.36C265.671 640.52 264.911 639.6 263.391 639.6C261.871 639.6 261.111 640.52 261.111 642.36V657.68C261.111 659.493 261.871 660.4 263.391 660.4C264.911 660.4 265.671 659.493 265.671 657.68V652.2H263.471V648.2H269.831V657.36C269.831 659.627 269.271 661.373 268.151 662.6C267.031 663.8 265.404 664.4 263.271 664.4ZM279.056 664.4C276.922 664.4 275.296 663.8 274.176 662.6C273.056 661.373 272.496 659.627 272.496 657.36V636H276.896V657.68C276.896 658.64 277.082 659.333 277.456 659.76C277.856 660.187 278.416 660.4 279.136 660.4C279.856 660.4 280.402 660.187 280.776 659.76C281.176 659.333 281.376 658.64 281.376 657.68V636H285.616V657.36C285.616 659.627 285.056 661.373 283.936 662.6C282.816 663.8 281.189 664.4 279.056 664.4ZM292.071 636H298.031L302.591 664H298.191L297.391 658.44V658.52H292.391L291.591 664H287.511L292.071 636ZM296.871 654.72L294.911 640.88H294.831L292.911 654.72H296.871ZM310.888 664.4C308.754 664.4 307.128 663.8 306.008 662.6C304.888 661.373 304.328 659.627 304.328 657.36V642.64C304.328 640.373 304.888 638.64 306.008 637.44C307.128 636.213 308.754 635.6 310.888 635.6C313.021 635.6 314.648 636.213 315.768 637.44C316.888 638.64 317.448 640.373 317.448 642.64V645.04H313.288V642.36C313.288 640.52 312.528 639.6 311.008 639.6C309.488 639.6 308.728 640.52 308.728 642.36V657.68C308.728 659.493 309.488 660.4 311.008 660.4C312.528 660.4 313.288 659.493 313.288 657.68V652.2H311.088V648.2H317.448V657.36C317.448 659.627 316.888 661.373 315.768 662.6C314.648 663.8 313.021 664.4 310.888 664.4ZM320.273 636H332.273V640H324.673V647.4H330.713V651.4H324.673V660H332.273V664H320.273V636ZM340.602 664.4C338.469 664.4 336.856 663.8 335.762 662.6C334.669 661.373 334.122 659.627 334.122 657.36V655.76H338.282V657.68C338.282 659.493 339.042 660.4 340.562 660.4C341.309 660.4 341.869 660.187 342.242 659.76C342.642 659.307 342.842 658.587 342.842 657.6C342.842 656.427 342.576 655.4 342.042 654.52C341.509 653.613 340.522 652.533 339.082 651.28C337.269 649.68 336.002 648.24 335.282 646.96C334.562 645.653 334.202 644.187 334.202 642.56C334.202 640.347 334.762 638.64 335.882 637.44C337.002 636.213 338.629 635.6 340.762 635.6C342.869 635.6 344.456 636.213 345.522 637.44C346.616 638.64 347.162 640.373 347.162 642.64V643.8H343.002V642.36C343.002 641.4 342.816 640.707 342.442 640.28C342.069 639.827 341.522 639.6 340.802 639.6C339.336 639.6 338.602 640.493 338.602 642.28C338.602 643.293 338.869 644.24 339.402 645.12C339.962 646 340.962 647.067 342.402 648.32C344.242 649.92 345.509 651.373 346.202 652.68C346.896 653.987 347.242 655.52 347.242 657.28C347.242 659.573 346.669 661.333 345.522 662.56C344.402 663.787 342.762 664.4 340.602 664.4ZM356.171 636H360.571V660H367.811V664H356.171V636ZM369.921 636H374.321V664H369.921V636ZM377.617 636H382.017V647.8L387.617 636H392.017L386.777 646.28L392.097 664H387.497L383.777 651.52L382.017 655.08V664H377.617V636ZM394.179 636H406.179V640H398.579V647.4H404.619V651.4H398.579V660H406.179V664H394.179V636ZM100.976 684H105.376V695.4H110.096V684H114.496V712H110.096V699.4H105.376V712H100.976V684ZM121.213 688H116.613V684H130.213V688H125.613V712H121.213V688ZM132.343 684H138.623L141.423 704.04H141.503L144.303 684H150.583V712H146.423V690.8H146.343L143.143 712H139.463L136.263 690.8H136.183V712H132.343V684ZM153.867 684H158.267V708H165.507V712H153.867V684ZM169.447 712H168.007V707.76H172.247V711.56L170.047 716.8H168.007L169.447 712ZM188.153 712.4C186.046 712.4 184.433 711.8 183.313 710.6C182.219 709.4 181.673 707.707 181.673 705.52V690.48C181.673 688.293 182.219 686.6 183.313 685.4C184.433 684.2 186.046 683.6 188.153 683.6C190.259 683.6 191.859 684.2 192.953 685.4C194.073 686.6 194.633 688.293 194.633 690.48V693.44H190.473V690.2C190.473 688.467 189.739 687.6 188.273 687.6C186.806 687.6 186.073 688.467 186.073 690.2V705.84C186.073 707.547 186.806 708.4 188.273 708.4C189.739 708.4 190.473 707.547 190.473 705.84V701.56H194.633V705.52C194.633 707.707 194.073 709.4 192.953 710.6C191.859 711.8 190.259 712.4 188.153 712.4ZM203.063 712.4C200.93 712.4 199.316 711.8 198.223 710.6C197.13 709.373 196.583 707.627 196.583 705.36V703.76H200.743V705.68C200.743 707.493 201.503 708.4 203.023 708.4C203.77 708.4 204.33 708.187 204.703 707.76C205.103 707.307 205.303 706.587 205.303 705.6C205.303 704.427 205.036 703.4 204.503 702.52C203.97 701.613 202.983 700.533 201.543 699.28C199.73 697.68 198.463 696.24 197.743 694.96C197.023 693.653 196.663 692.187 196.663 690.56C196.663 688.347 197.223 686.64 198.343 685.44C199.463 684.213 201.09 683.6 203.223 683.6C205.33 683.6 206.916 684.213 207.983 685.44C209.076 686.64 209.623 688.373 209.623 690.64V691.8H205.463V690.36C205.463 689.4 205.276 688.707 204.903 688.28C204.53 687.827 203.983 687.6 203.263 687.6C201.796 687.6 201.063 688.493 201.063 690.28C201.063 691.293 201.33 692.24 201.863 693.12C202.423 694 203.423 695.067 204.863 696.32C206.703 697.92 207.97 699.373 208.663 700.68C209.356 701.987 209.703 703.52 209.703 705.28C209.703 707.573 209.13 709.333 207.983 710.56C206.863 711.787 205.223 712.4 203.063 712.4ZM217.946 712.4C215.813 712.4 214.199 711.8 213.106 710.6C212.013 709.373 211.466 707.627 211.466 705.36V703.76H215.626V705.68C215.626 707.493 216.386 708.4 217.906 708.4C218.653 708.4 219.213 708.187 219.586 707.76C219.986 707.307 220.186 706.587 220.186 705.6C220.186 704.427 219.919 703.4 219.386 702.52C218.853 701.613 217.866 700.533 216.426 699.28C214.613 697.68 213.346 696.24 212.626 694.96C211.906 693.653 211.546 692.187 211.546 690.56C211.546 688.347 212.106 686.64 213.226 685.44C214.346 684.213 215.973 683.6 218.106 683.6C220.213 683.6 221.799 684.213 222.866 685.44C223.959 686.64 224.506 688.373 224.506 690.64V691.8H220.346V690.36C220.346 689.4 220.159 688.707 219.786 688.28C219.413 687.827 218.866 687.6 218.146 687.6C216.679 687.6 215.946 688.493 215.946 690.28C215.946 691.293 216.213 692.24 216.746 693.12C217.306 694 218.306 695.067 219.746 696.32C221.586 697.92 222.853 699.373 223.546 700.68C224.239 701.987 224.586 703.52 224.586 705.28C224.586 707.573 224.013 709.333 222.866 710.56C221.746 711.787 220.106 712.4 217.946 712.4ZM236.915 684H242.875L247.435 712H243.035L242.235 706.44V706.52H237.235L236.435 712H232.355L236.915 684ZM241.715 702.72L239.755 688.88H239.675L237.755 702.72H241.715ZM249.57 684H255.09L259.37 700.76H259.45V684H263.37V712H258.85L253.57 691.56H253.49V712H249.57V684ZM266.64 684H273.36C275.547 684 277.187 684.587 278.28 685.76C279.373 686.933 279.92 688.653 279.92 690.92V705.08C279.92 707.347 279.373 709.067 278.28 710.24C277.187 711.413 275.547 712 273.36 712H266.64V684ZM273.28 708C274 708 274.547 707.787 274.92 707.36C275.32 706.933 275.52 706.24 275.52 705.28V690.72C275.52 689.76 275.32 689.067 274.92 688.64C274.547 688.213 274 688 273.28 688H271.04V708H273.28ZM290.336 712.16C289.536 712.16 288.856 712.107 288.296 712V708C288.723 708.107 289.203 708.16 289.736 708.16C290.616 708.16 291.27 707.947 291.696 707.52C292.123 707.067 292.336 706.387 292.336 705.48V684H296.736V705.36C296.736 707.653 296.203 709.36 295.136 710.48C294.096 711.6 292.496 712.16 290.336 712.16ZM305.602 712.4C303.469 712.4 301.856 711.8 300.762 710.6C299.669 709.373 299.122 707.627 299.122 705.36V703.76H303.282V705.68C303.282 707.493 304.042 708.4 305.562 708.4C306.309 708.4 306.869 708.187 307.242 707.76C307.642 707.307 307.842 706.587 307.842 705.6C307.842 704.427 307.576 703.4 307.042 702.52C306.509 701.613 305.522 700.533 304.082 699.28C302.269 697.68 301.002 696.24 300.282 694.96C299.562 693.653 299.202 692.187 299.202 690.56C299.202 688.347 299.762 686.64 300.882 685.44C302.002 684.213 303.629 683.6 305.762 683.6C307.869 683.6 309.456 684.213 310.522 685.44C311.616 686.64 312.162 688.373 312.162 690.64V691.8H308.002V690.36C308.002 689.4 307.816 688.707 307.442 688.28C307.069 687.827 306.522 687.6 305.802 687.6C304.336 687.6 303.602 688.493 303.602 690.28C303.602 691.293 303.869 692.24 304.402 693.12C304.962 694 305.962 695.067 307.402 696.32C309.242 697.92 310.509 699.373 311.202 700.68C311.896 701.987 312.242 703.52 312.242 705.28C312.242 707.573 311.669 709.333 310.522 710.56C309.402 711.787 307.762 712.4 305.602 712.4ZM314.765 707.76H319.005V712H314.765V707.76Z" fill="black"/>
</g>
<defs>
<linearGradient id="paint0_linear" x1="210" y1="0" x2="210" y2="420" gradientUnits="userSpaceOnUse">
<stop stop-color="#4F4F4F"/>
<stop offset="1" stop-color="white" stop-opacity="0"/>
</linearGradient>
<linearGradient id="paint1_linear" x1="210" y1="420" x2="210" y2="754" gradientUnits="userSpaceOnUse">
<stop stop-color="#FF0000"/>
<stop offset="1" stop-color="white" stop-opacity="0"/>
</linearGradient>
<clipPath id="clip0">
<rect width="420" height="750" fill="white"/>
</clipPath>
</defs>
</svg>
