<svg width="153" height="148" viewBox="0 0 153 148" fill="none" xmlns="http://www.w3.org/2000/svg">
<rect width="153" height="148" fill="#E5E5E5"/>
<rect width="153" height="148" fill="white"/>
<path d="M145 74.5C145 112.331 114.331 143 76.5 143C38.6685 143 8 112.331 8 74.5C8 36.6685 38.6685 6 76.5 6C114.331 6 145 36.6685 145 74.5ZM16.4646 74.5C16.4646 107.657 43.3434 134.535 76.5 134.535C109.657 134.535 136.535 107.657 136.535 74.5C136.535 41.3434 109.657 14.4646 76.5 14.4646C43.3434 14.4646 16.4646 41.3434 16.4646 74.5Z" fill="black"/>
<g clip-path="url(#clip0)">
<path d="M42.3333 36H113.167V108.187L42.3333 36Z" fill="#FF0303"/>
<path d="M42.3333 36H113.167V108.187L42.3333 36Z" fill="url(#paint0_linear)"/>
<path d="M113.167 108.187L91.5 58.1375M42.3333 36H113.167H42.3333ZM42.3333 36L113.167 108.187L42.3333 36ZM42.3333 36L91.5 58.1375L42.3333 36ZM113.167 36V108.187V36ZM113.167 36L91.5 58.1375L113.167 36Z" stroke="black"/>
<path d="M109.833 112.037H39V39.85L109.833 112.037Z" fill="#05FF00"/>
<path d="M109.833 112.037H39V39.85L109.833 112.037Z" fill="url(#paint1_linear)"/>
<path d="M39 39.85L60.6667 89.9M109.833 112.037H39H109.833ZM109.833 112.037L39 39.85L109.833 112.037ZM109.833 112.037L60.6667 89.9L109.833 112.037ZM39 112.037V39.85V112.037ZM39 112.037L60.6667 89.9L39 112.037Z" stroke="black"/>
</g>
<defs>
<linearGradient id="paint0_linear" x1="77.75" y1="36" x2="77.75" y2="108.187" gradientUnits="userSpaceOnUse">
<stop stop-color="#FFF500"/>
<stop offset="1" stop-color="white" stop-opacity="0"/>
</linearGradient>
<linearGradient id="paint1_linear" x1="74.4167" y1="112.037" x2="74.4167" y2="39.85" gradientUnits="userSpaceOnUse">
<stop stop-color="#00E0FF"/>
<stop offset="1" stop-color="white" stop-opacity="0"/>
</linearGradient>
<clipPath id="clip0">
<rect width="75" height="77" fill="white" transform="translate(39 36)"/>
</clipPath>
</defs>
</svg>
